<svg xmlns="http://www.w3.org/2000/svg" width="14.627" height="12" viewBox="0 0 14.627 12">
  <path id="user-gear-solid" d="M5.251,0a3,3,0,1,1-3,3A3,3,0,0,1,5.251,0ZM4.18,7.126H6.322a4.36,4.36,0,0,1,.809.077,1.109,1.109,0,0,0,.511,1.05A1.1,1.1,0,0,0,7.173,9.5a4.277,4.277,0,0,0,.956,1.655,1.1,1.1,0,0,0,1.341.2v.021A1.118,1.118,0,0,0,9.656,12H.7a.693.693,0,0,1-.7-.694A4.179,4.179,0,0,1,4.18,7.126Zm6.041-2.011a.348.348,0,0,1,.265-.347,3.431,3.431,0,0,1,1.533,0,.348.348,0,0,1,.265.347v.717a2.628,2.628,0,0,1,.523.3L13.39,5.8a.351.351,0,0,1,.434.056,3.48,3.48,0,0,1,.471.638,3.417,3.417,0,0,1,.316.727.347.347,0,0,1-.169.4l-.586.338c.009.094.016.19.016.288a2.351,2.351,0,0,1-.016.288l.586.338a.35.35,0,0,1,.169.4,3.672,3.672,0,0,1-.316.727,3.375,3.375,0,0,1-.471.638.351.351,0,0,1-.434.056l-.584-.335a2.564,2.564,0,0,1-.523.3v.717a.348.348,0,0,1-.265.347,3.431,3.431,0,0,1-1.533,0,.348.348,0,0,1-.265-.347v-.717a2.5,2.5,0,0,1-.527-.3l-.579.335a.351.351,0,0,1-.434-.056A3.48,3.48,0,0,1,8.209,10a3.416,3.416,0,0,1-.316-.727.347.347,0,0,1,.169-.4l.581-.335c-.009-.1-.016-.192-.016-.291a2.39,2.39,0,0,1,.016-.291l-.584-.335a.35.35,0,0,1-.169-.4,3.539,3.539,0,0,1,.316-.727,3.48,3.48,0,0,1,.471-.638.351.351,0,0,1,.434-.056l.581.335a2.725,2.725,0,0,1,.527-.3V5.115Zm2.159,3.13a1.128,1.128,0,1,0-2.253,0,1.128,1.128,0,1,0,2.253,0Z"/>
</svg>
