<svg xmlns="http://www.w3.org/2000/svg" width="14.141" height="15" viewBox="0 0 14.141 15">
  <path id="gear-solid_2_" data-name="gear-solid (2)" d="M28.764,4.882a.664.664,0,0,1-.188.721L27.307,6.757a5.585,5.585,0,0,1,0,1.489L28.576,9.4a.664.664,0,0,1,.188.721,7.263,7.263,0,0,1-.463,1.005l-.138.237a7.457,7.457,0,0,1-.648.914.664.664,0,0,1-.718.2l-1.632-.519a5.639,5.639,0,0,1-1.289.744l-.366,1.673a.662.662,0,0,1-.533.522,7.612,7.612,0,0,1-2.491,0,.662.662,0,0,1-.533-.522L19.586,12.7a5.639,5.639,0,0,1-1.289-.744l-1.629.522a.669.669,0,0,1-.718-.2,7.456,7.456,0,0,1-.648-.914l-.138-.237a7.263,7.263,0,0,1-.463-1.005.664.664,0,0,1,.188-.721l1.269-1.155a5.749,5.749,0,0,1-.05-.747,5.67,5.67,0,0,1,.05-.744L14.889,5.6a.664.664,0,0,1-.188-.721,7.263,7.263,0,0,1,.463-1.005l.138-.237a7.456,7.456,0,0,1,.648-.914.664.664,0,0,1,.718-.2l1.632.519A5.639,5.639,0,0,1,19.589,2.3L19.955.627a.662.662,0,0,1,.533-.522A7.264,7.264,0,0,1,21.734,0a7.572,7.572,0,0,1,1.245.1.662.662,0,0,1,.533.522L23.879,2.3a5.639,5.639,0,0,1,1.289.744L26.8,2.523a.669.669,0,0,1,.718.2,7.456,7.456,0,0,1,.648.914l.138.237a7.263,7.263,0,0,1,.463,1.005Zm-7.03,4.964A2.344,2.344,0,1,0,19.39,7.5a2.344,2.344,0,0,0,2.344,2.344Z" transform="translate(-14.662)" fill="rgba(255,255,255,0.6)"/>
</svg>
