<svg xmlns="http://www.w3.org/2000/svg" width="9.625" height="11" viewBox="0 0 9.625 11">
  <path id="calendar-days-solid" d="M2.75,0a.687.687,0,0,1,.688.688v.688h2.75V.688a.688.688,0,0,1,1.375,0v.688H8.594A1.032,1.032,0,0,1,9.625,2.406V3.438H0V2.406A1.032,1.032,0,0,1,1.031,1.375H2.063V.688A.687.687,0,0,1,2.75,0ZM0,4.125H9.625V9.969A1.032,1.032,0,0,1,8.594,11H1.031A1.032,1.032,0,0,1,0,9.969ZM1.375,5.844v.688a.345.345,0,0,0,.344.344h.688a.345.345,0,0,0,.344-.344V5.844A.345.345,0,0,0,2.406,5.5H1.719A.345.345,0,0,0,1.375,5.844Zm2.75,0v.688a.345.345,0,0,0,.344.344h.688A.345.345,0,0,0,5.5,6.531V5.844A.345.345,0,0,0,5.156,5.5H4.469A.345.345,0,0,0,4.125,5.844ZM7.219,5.5a.345.345,0,0,0-.344.344v.688a.345.345,0,0,0,.344.344h.688a.345.345,0,0,0,.344-.344V5.844A.345.345,0,0,0,7.906,5.5ZM1.375,8.594v.688a.345.345,0,0,0,.344.344h.688a.345.345,0,0,0,.344-.344V8.594a.345.345,0,0,0-.344-.344H1.719A.345.345,0,0,0,1.375,8.594ZM4.469,8.25a.345.345,0,0,0-.344.344v.688a.345.345,0,0,0,.344.344h.688A.345.345,0,0,0,5.5,9.281V8.594a.345.345,0,0,0-.344-.344Zm2.406.344v.688a.345.345,0,0,0,.344.344h.688a.345.345,0,0,0,.344-.344V8.594a.345.345,0,0,0-.344-.344H7.219A.345.345,0,0,0,6.875,8.594Z"/>
</svg>
