<svg xmlns="http://www.w3.org/2000/svg" width="11.375" height="13" viewBox="0 0 11.375 13">
  <path id="calendar-days-solid_2_" data-name="calendar-days-solid (2)" d="M3.25,0a.812.812,0,0,1,.813.813v.813h3.25V.813a.813.813,0,0,1,1.625,0v.813h1.219a1.219,1.219,0,0,1,1.219,1.219V4.063H0V2.844A1.219,1.219,0,0,1,1.219,1.625H2.438V.813A.812.812,0,0,1,3.25,0ZM0,4.875H11.375v6.906A1.219,1.219,0,0,1,10.156,13H1.219A1.219,1.219,0,0,1,0,11.781ZM1.625,6.906v.813a.407.407,0,0,0,.406.406h.813a.407.407,0,0,0,.406-.406V6.906A.407.407,0,0,0,2.844,6.5H2.031A.407.407,0,0,0,1.625,6.906Zm3.25,0v.813a.407.407,0,0,0,.406.406h.813A.407.407,0,0,0,6.5,7.719V6.906A.407.407,0,0,0,6.094,6.5H5.281A.407.407,0,0,0,4.875,6.906ZM8.531,6.5a.407.407,0,0,0-.406.406v.813a.407.407,0,0,0,.406.406h.813a.407.407,0,0,0,.406-.406V6.906A.407.407,0,0,0,9.344,6.5ZM1.625,10.156v.813a.407.407,0,0,0,.406.406h.813a.407.407,0,0,0,.406-.406v-.812a.407.407,0,0,0-.406-.406H2.031A.407.407,0,0,0,1.625,10.156ZM5.281,9.75a.407.407,0,0,0-.406.406v.813a.407.407,0,0,0,.406.406h.813a.407.407,0,0,0,.406-.406v-.812a.407.407,0,0,0-.406-.406Zm2.844.406v.813a.407.407,0,0,0,.406.406h.813a.407.407,0,0,0,.406-.406v-.812a.407.407,0,0,0-.406-.406H8.531A.407.407,0,0,0,8.125,10.156Z" fill="#0c345d"/>
</svg>
