<svg xmlns="http://www.w3.org/2000/svg" width="16" height="14" viewBox="0 0 16 14">
  <path id="comment-regular_1_" data-name="comment-regular (1)" d="M3.736,43.226a1.5,1.5,0,0,1,1.393-.2,8.059,8.059,0,0,0,2.743.472c3.9,0,6.5-2.515,6.5-5s-2.6-5-6.5-5-6.5,2.515-6.5,5a4.19,4.19,0,0,0,1.115,2.787,1.5,1.5,0,0,1,.369,1.109,5.533,5.533,0,0,1-.353,1.543,7.844,7.844,0,0,0,1.231-.709Zm-3.2,1.268q.084-.127.159-.253a4.548,4.548,0,0,0,.669-1.965A5.694,5.694,0,0,1-.126,38.5c0-3.59,3.58-6.5,8-6.5s8,2.909,8,6.5-3.58,6.5-8,6.5a9.566,9.566,0,0,1-3.252-.559,9.254,9.254,0,0,1-1.7.956,7.653,7.653,0,0,1-1.565.5c-.025.006-.05.009-.075.016-.137.025-.272.047-.412.059l-.022,0C.69,45.991.53,46,.371,46a.5.5,0,0,1-.356-.853,3.824,3.824,0,0,0,.353-.422q.08-.108.15-.216c0-.006.006-.009.009-.016Z" transform="translate(0.13 -32)" fill="#7e7e7e"/>
</svg>
