<svg xmlns="http://www.w3.org/2000/svg" width="11" height="11" viewBox="0 0 11 11">
  <path id="pen-to-square-solid" d="M10.238,5.632a1.215,1.215,0,0,0-1.719,0l-.653.651L9.99,8.408l.653-.653a1.215,1.215,0,0,0,0-1.719Zm-6.5,4.776a1.2,1.2,0,0,0-.293.475L2.807,12.81a.524.524,0,0,0,.126.534.517.517,0,0,0,.534.126l1.928-.643a1.23,1.23,0,0,0,.475-.293L9.5,8.9,7.374,6.773ZM2.084,6.55A2.085,2.085,0,0,0,0,8.634v5.557a2.085,2.085,0,0,0,2.084,2.084H7.641a2.085,2.085,0,0,0,2.084-2.084V12.107a.695.695,0,0,0-1.389,0v2.084a.694.694,0,0,1-.695.695H2.084a.694.694,0,0,1-.695-.695V8.634a.694.694,0,0,1,.695-.695H4.168a.695.695,0,0,0,0-1.389Z" transform="translate(0 -5.275)" fill="#0f8815"/>
</svg>
