<svg xmlns="http://www.w3.org/2000/svg" width="14" height="14" viewBox="0 0 14 14">
  <path id="pen-to-square-regular" d="M12.152,5.44l.333.333a.659.659,0,0,1,0,.934l-.8.8-1.27-1.27.8-.8a.659.659,0,0,1,.934,0ZM5.781,10.876l3.7-3.7,1.27,1.27-3.7,3.7a.659.659,0,0,1-.287.168l-1.612.46.46-1.612a.659.659,0,0,1,.168-.287Zm4.5-6.371L4.844,9.94a1.969,1.969,0,0,0-.5.857l-.788,2.755a.662.662,0,0,0,.818.818l2.755-.788a1.991,1.991,0,0,0,.857-.5l5.437-5.434a1.984,1.984,0,0,0,0-2.805l-.333-.333A1.984,1.984,0,0,0,10.281,4.506ZM2.425,5.58A2.425,2.425,0,0,0,0,8.005V15.5a2.425,2.425,0,0,0,2.425,2.425H9.92A2.425,2.425,0,0,0,12.345,15.5V12.414a.661.661,0,1,0-1.323,0V15.5a1.1,1.1,0,0,1-1.1,1.1H2.425a1.1,1.1,0,0,1-1.1-1.1V8.005a1.1,1.1,0,0,1,1.1-1.1H5.511a.661.661,0,0,0,0-1.323Z" transform="translate(0 -3.925)" fill="#3551ab"/>
</svg>
