<svg xmlns="http://www.w3.org/2000/svg" width="20" height="20" viewBox="0 0 20 20">
  <g id="Group_1327" data-name="Group 1327" transform="translate(-1071 -902)">
    <rect id="Rectangle_393" data-name="Rectangle 393" width="20" height="20" rx="10" transform="translate(1071 902)" fill="#ececec"/>
    <path id="face-smile-regular" d="M9.163,5.055A4.107,4.107,0,1,0,5.055,9.163,4.107,4.107,0,0,0,9.163,5.055ZM0,5.055a5.055,5.055,0,1,1,5.055,5.055A5.055,5.055,0,0,1,0,5.055ZM3.507,6.282a2.125,2.125,0,0,0,3.1,0,.474.474,0,0,1,.7.642,3.067,3.067,0,0,1-4.487,0,.474.474,0,1,1,.7-.642ZM2.852,4.107a.632.632,0,1,1,.632.632A.632.632,0,0,1,2.852,4.107Zm3.792-.632a.632.632,0,1,1-.632.632A.632.632,0,0,1,6.643,3.476Z" transform="translate(1075.889 906.889)" fill="#ff9100"/>
  </g>
</svg>
