<svg xmlns="http://www.w3.org/2000/svg" width="14.225" height="14" viewBox="0 0 14.225 14">
  <path id="fingerprint-solid" d="M1.333,7.111A5.778,5.778,0,0,1,11.495,3.347a.666.666,0,1,0,1.011-.867A7.11,7.11,0,0,0,0,7.111V8.222a.667.667,0,1,0,1.333,0ZM14.07,5.642a.666.666,0,1,0-1.3.275,5.854,5.854,0,0,1,.125,1.2V8.225a.667.667,0,1,0,1.333,0V7.111a7.128,7.128,0,0,0-.153-1.469ZM7.111,2.222A4.866,4.866,0,0,0,5.6,2.461a.611.611,0,0,0-.231,1,.793.793,0,0,0,.817.219,3.511,3.511,0,0,1,.928-.122,3.555,3.555,0,0,1,3.556,3.556V7.8a18.139,18.139,0,0,1-.122,2.092.686.686,0,0,0,.672.772.646.646,0,0,0,.647-.564A19.208,19.208,0,0,0,12,7.806V7.111A4.889,4.889,0,0,0,7.114,2.222ZM4.186,4.131a.605.605,0,0,0-.942-.011A4.856,4.856,0,0,0,2.222,7.111V7.8a9.261,9.261,0,0,1-.217,2,.7.7,0,0,0,.664.867.626.626,0,0,0,.617-.481A10.719,10.719,0,0,0,3.556,7.8V7.111a3.545,3.545,0,0,1,.636-2.031A.783.783,0,0,0,4.186,4.131Zm2.925.314A2.667,2.667,0,0,0,4.445,7.111V7.8a11.458,11.458,0,0,1-.383,2.947.637.637,0,0,0,.6.806.584.584,0,0,0,.567-.428A12.785,12.785,0,0,0,5.667,7.8V7.111a1.444,1.444,0,0,1,2.889,0V7.8a15.7,15.7,0,0,1-.289,3,.63.63,0,0,0,.606.756.59.59,0,0,0,.583-.472A16.842,16.842,0,0,0,9.778,7.8V7.111A2.667,2.667,0,0,0,7.111,4.445Zm.667,2.667a.667.667,0,0,0-1.333,0V7.8a13.558,13.558,0,0,1-.9,4.867l-.164.425a.667.667,0,1,0,1.244.478l.164-.425A14.9,14.9,0,0,0,7.778,7.8Z" fill="#45b9a6"/>
</svg>
