<svg xmlns="http://www.w3.org/2000/svg" width="692" height="385" viewBox="0 0 692 385">
  <g id="Group_582" data-name="Group 582" transform="translate(-336 -263)">
    <path id="Line_183" data-name="Line 183" d="M668,.25H0v-.5H668Z" transform="translate(360 626)" fill="rgba(0,0,0,0.3)"/>
    <path id="Line_184" data-name="Line 184" d="M.25,362h-.5V0h.5Z" transform="translate(360 263)" fill="rgba(0,0,0,0.3)"/>
    <path id="Line_185" data-name="Line 185" d="M666,.25h-2v-.5h2Zm-4,0h-2v-.5h2Zm-4,0h-2v-.5h2Zm-4,0h-2v-.5h2Zm-4,0h-2v-.5h2Zm-4,0h-2v-.5h2Zm-4,0h-2v-.5h2Zm-4,0h-2v-.5h2Zm-4,0h-2v-.5h2Zm-4,0h-2v-.5h2Zm-4,0h-2v-.5h2Zm-4,0h-2v-.5h2Zm-4,0h-2v-.5h2Zm-4,0h-2v-.5h2Zm-4,0h-2v-.5h2Zm-4,0h-2v-.5h2Zm-4,0h-2v-.5h2Zm-4,0h-2v-.5h2Zm-4,0h-2v-.5h2Zm-4,0h-2v-.5h2Zm-4,0h-2v-.5h2Zm-4,0h-2v-.5h2Zm-4,0h-2v-.5h2Zm-4,0h-2v-.5h2Zm-4,0h-2v-.5h2Zm-4,0h-2v-.5h2Zm-4,0h-2v-.5h2Zm-4,0h-2v-.5h2Zm-4,0h-2v-.5h2Zm-4,0h-2v-.5h2Zm-4,0h-2v-.5h2Zm-4,0h-2v-.5h2Zm-4,0h-2v-.5h2Zm-4,0h-2v-.5h2Zm-4,0h-2v-.5h2Zm-4,0h-2v-.5h2Zm-4,0h-2v-.5h2Zm-4,0h-2v-.5h2Zm-4,0h-2v-.5h2Zm-4,0h-2v-.5h2Zm-4,0h-2v-.5h2Zm-4,0h-2v-.5h2Zm-4,0h-2v-.5h2Zm-4,0h-2v-.5h2Zm-4,0h-2v-.5h2Zm-4,0h-2v-.5h2Zm-4,0h-2v-.5h2Zm-4,0h-2v-.5h2Zm-4,0h-2v-.5h2Zm-4,0h-2v-.5h2Zm-4,0h-2v-.5h2Zm-4,0h-2v-.5h2Zm-4,0h-2v-.5h2Zm-4,0h-2v-.5h2Zm-4,0h-2v-.5h2Zm-4,0h-2v-.5h2Zm-4,0h-2v-.5h2Zm-4,0h-2v-.5h2Zm-4,0h-2v-.5h2Zm-4,0h-2v-.5h2Zm-4,0h-2v-.5h2Zm-4,0h-2v-.5h2Zm-4,0h-2v-.5h2Zm-4,0h-2v-.5h2Zm-4,0h-2v-.5h2Zm-4,0h-2v-.5h2Zm-4,0h-2v-.5h2Zm-4,0h-2v-.5h2Zm-4,0h-2v-.5h2Zm-4,0h-2v-.5h2Zm-4,0h-2v-.5h2Zm-4,0h-2v-.5h2Zm-4,0h-2v-.5h2Zm-4,0h-2v-.5h2Zm-4,0h-2v-.5h2Zm-4,0h-2v-.5h2Zm-4,0h-2v-.5h2Zm-4,0h-2v-.5h2Zm-4,0h-2v-.5h2Zm-4,0h-2v-.5h2Zm-4,0h-2v-.5h2Zm-4,0h-2v-.5h2Zm-4,0h-2v-.5h2Zm-4,0h-2v-.5h2Zm-4,0h-2v-.5h2Zm-4,0h-2v-.5h2Zm-4,0h-2v-.5h2Zm-4,0h-2v-.5h2Zm-4,0h-2v-.5h2Zm-4,0h-2v-.5h2Zm-4,0h-2v-.5h2Zm-4,0h-2v-.5h2Zm-4,0h-2v-.5h2Zm-4,0h-2v-.5h2Zm-4,0h-2v-.5h2Zm-4,0h-2v-.5h2Zm-4,0h-2v-.5h2Zm-4,0h-2v-.5h2Zm-4,0h-2v-.5h2Zm-4,0h-2v-.5h2Zm-4,0h-2v-.5h2Zm-4,0h-2v-.5h2Zm-4,0h-2v-.5h2Zm-4,0h-2v-.5h2Zm-4,0h-2v-.5h2Zm-4,0h-2v-.5h2Zm-4,0h-2v-.5h2Zm-4,0h-2v-.5h2Zm-4,0h-2v-.5h2Zm-4,0h-2v-.5h2Zm-4,0h-2v-.5h2Zm-4,0h-2v-.5h2Zm-4,0h-2v-.5h2Zm-4,0h-2v-.5h2Zm-4,0h-2v-.5h2Zm-4,0h-2v-.5h2Zm-4,0h-2v-.5h2Zm-4,0h-2v-.5h2Zm-4,0h-2v-.5h2Zm-4,0h-2v-.5h2Zm-4,0h-2v-.5h2Zm-4,0h-2v-.5h2Zm-4,0h-2v-.5h2Zm-4,0h-2v-.5h2Zm-4,0h-2v-.5h2Zm-4,0h-2v-.5h2Zm-4,0h-2v-.5h2Zm-4,0h-2v-.5h2Zm-4,0h-2v-.5h2Zm-4,0h-2v-.5h2Zm-4,0h-2v-.5h2Zm-4,0h-2v-.5h2Zm-4,0h-2v-.5h2Zm-4,0h-2v-.5h2Zm-4,0h-2v-.5h2Zm-4,0h-2v-.5h2Zm-4,0h-2v-.5h2Zm-4,0h-2v-.5h2Zm-4,0h-2v-.5h2Zm-4,0h-2v-.5h2Zm-4,0h-2v-.5h2Zm-4,0h-2v-.5h2Zm-4,0H96v-.5h2Zm-4,0H92v-.5h2Zm-4,0H88v-.5h2Zm-4,0H84v-.5h2Zm-4,0H80v-.5h2Zm-4,0H76v-.5h2Zm-4,0H72v-.5h2Zm-4,0H68v-.5h2Zm-4,0H64v-.5h2Zm-4,0H60v-.5h2Zm-4,0H56v-.5h2Zm-4,0H52v-.5h2Zm-4,0H48v-.5h2Zm-4,0H44v-.5h2Zm-4,0H40v-.5h2Zm-4,0H36v-.5h2Zm-4,0H32v-.5h2Zm-4,0H28v-.5h2Zm-4,0H24v-.5h2Zm-4,0H20v-.5h2Zm-4,0H16v-.5h2Zm-4,0H12v-.5h2Zm-4,0H8v-.5h2Zm-4,0H4v-.5H6Zm-4,0H0v-.5H2Z" transform="translate(360 591)" fill="rgba(0,0,0,0.15)"/>
    <path id="Line_186" data-name="Line 186" d="M666,.25h-2v-.5h2Zm-4,0h-2v-.5h2Zm-4,0h-2v-.5h2Zm-4,0h-2v-.5h2Zm-4,0h-2v-.5h2Zm-4,0h-2v-.5h2Zm-4,0h-2v-.5h2Zm-4,0h-2v-.5h2Zm-4,0h-2v-.5h2Zm-4,0h-2v-.5h2Zm-4,0h-2v-.5h2Zm-4,0h-2v-.5h2Zm-4,0h-2v-.5h2Zm-4,0h-2v-.5h2Zm-4,0h-2v-.5h2Zm-4,0h-2v-.5h2Zm-4,0h-2v-.5h2Zm-4,0h-2v-.5h2Zm-4,0h-2v-.5h2Zm-4,0h-2v-.5h2Zm-4,0h-2v-.5h2Zm-4,0h-2v-.5h2Zm-4,0h-2v-.5h2Zm-4,0h-2v-.5h2Zm-4,0h-2v-.5h2Zm-4,0h-2v-.5h2Zm-4,0h-2v-.5h2Zm-4,0h-2v-.5h2Zm-4,0h-2v-.5h2Zm-4,0h-2v-.5h2Zm-4,0h-2v-.5h2Zm-4,0h-2v-.5h2Zm-4,0h-2v-.5h2Zm-4,0h-2v-.5h2Zm-4,0h-2v-.5h2Zm-4,0h-2v-.5h2Zm-4,0h-2v-.5h2Zm-4,0h-2v-.5h2Zm-4,0h-2v-.5h2Zm-4,0h-2v-.5h2Zm-4,0h-2v-.5h2Zm-4,0h-2v-.5h2Zm-4,0h-2v-.5h2Zm-4,0h-2v-.5h2Zm-4,0h-2v-.5h2Zm-4,0h-2v-.5h2Zm-4,0h-2v-.5h2Zm-4,0h-2v-.5h2Zm-4,0h-2v-.5h2Zm-4,0h-2v-.5h2Zm-4,0h-2v-.5h2Zm-4,0h-2v-.5h2Zm-4,0h-2v-.5h2Zm-4,0h-2v-.5h2Zm-4,0h-2v-.5h2Zm-4,0h-2v-.5h2Zm-4,0h-2v-.5h2Zm-4,0h-2v-.5h2Zm-4,0h-2v-.5h2Zm-4,0h-2v-.5h2Zm-4,0h-2v-.5h2Zm-4,0h-2v-.5h2Zm-4,0h-2v-.5h2Zm-4,0h-2v-.5h2Zm-4,0h-2v-.5h2Zm-4,0h-2v-.5h2Zm-4,0h-2v-.5h2Zm-4,0h-2v-.5h2Zm-4,0h-2v-.5h2Zm-4,0h-2v-.5h2Zm-4,0h-2v-.5h2Zm-4,0h-2v-.5h2Zm-4,0h-2v-.5h2Zm-4,0h-2v-.5h2Zm-4,0h-2v-.5h2Zm-4,0h-2v-.5h2Zm-4,0h-2v-.5h2Zm-4,0h-2v-.5h2Zm-4,0h-2v-.5h2Zm-4,0h-2v-.5h2Zm-4,0h-2v-.5h2Zm-4,0h-2v-.5h2Zm-4,0h-2v-.5h2Zm-4,0h-2v-.5h2Zm-4,0h-2v-.5h2Zm-4,0h-2v-.5h2Zm-4,0h-2v-.5h2Zm-4,0h-2v-.5h2Zm-4,0h-2v-.5h2Zm-4,0h-2v-.5h2Zm-4,0h-2v-.5h2Zm-4,0h-2v-.5h2Zm-4,0h-2v-.5h2Zm-4,0h-2v-.5h2Zm-4,0h-2v-.5h2Zm-4,0h-2v-.5h2Zm-4,0h-2v-.5h2Zm-4,0h-2v-.5h2Zm-4,0h-2v-.5h2Zm-4,0h-2v-.5h2Zm-4,0h-2v-.5h2Zm-4,0h-2v-.5h2Zm-4,0h-2v-.5h2Zm-4,0h-2v-.5h2Zm-4,0h-2v-.5h2Zm-4,0h-2v-.5h2Zm-4,0h-2v-.5h2Zm-4,0h-2v-.5h2Zm-4,0h-2v-.5h2Zm-4,0h-2v-.5h2Zm-4,0h-2v-.5h2Zm-4,0h-2v-.5h2Zm-4,0h-2v-.5h2Zm-4,0h-2v-.5h2Zm-4,0h-2v-.5h2Zm-4,0h-2v-.5h2Zm-4,0h-2v-.5h2Zm-4,0h-2v-.5h2Zm-4,0h-2v-.5h2Zm-4,0h-2v-.5h2Zm-4,0h-2v-.5h2Zm-4,0h-2v-.5h2Zm-4,0h-2v-.5h2Zm-4,0h-2v-.5h2Zm-4,0h-2v-.5h2Zm-4,0h-2v-.5h2Zm-4,0h-2v-.5h2Zm-4,0h-2v-.5h2Zm-4,0h-2v-.5h2Zm-4,0h-2v-.5h2Zm-4,0h-2v-.5h2Zm-4,0h-2v-.5h2Zm-4,0h-2v-.5h2Zm-4,0h-2v-.5h2Zm-4,0h-2v-.5h2Zm-4,0h-2v-.5h2Zm-4,0h-2v-.5h2Zm-4,0h-2v-.5h2Zm-4,0h-2v-.5h2Zm-4,0h-2v-.5h2Zm-4,0h-2v-.5h2Zm-4,0h-2v-.5h2Zm-4,0H96v-.5h2Zm-4,0H92v-.5h2Zm-4,0H88v-.5h2Zm-4,0H84v-.5h2Zm-4,0H80v-.5h2Zm-4,0H76v-.5h2Zm-4,0H72v-.5h2Zm-4,0H68v-.5h2Zm-4,0H64v-.5h2Zm-4,0H60v-.5h2Zm-4,0H56v-.5h2Zm-4,0H52v-.5h2Zm-4,0H48v-.5h2Zm-4,0H44v-.5h2Zm-4,0H40v-.5h2Zm-4,0H36v-.5h2Zm-4,0H32v-.5h2Zm-4,0H28v-.5h2Zm-4,0H24v-.5h2Zm-4,0H20v-.5h2Zm-4,0H16v-.5h2Zm-4,0H12v-.5h2Zm-4,0H8v-.5h2Zm-4,0H4v-.5H6Zm-4,0H0v-.5H2Z" transform="translate(360 556)" fill="rgba(0,0,0,0.15)"/>
    <path id="Line_187" data-name="Line 187" d="M666,.25h-2v-.5h2Zm-4,0h-2v-.5h2Zm-4,0h-2v-.5h2Zm-4,0h-2v-.5h2Zm-4,0h-2v-.5h2Zm-4,0h-2v-.5h2Zm-4,0h-2v-.5h2Zm-4,0h-2v-.5h2Zm-4,0h-2v-.5h2Zm-4,0h-2v-.5h2Zm-4,0h-2v-.5h2Zm-4,0h-2v-.5h2Zm-4,0h-2v-.5h2Zm-4,0h-2v-.5h2Zm-4,0h-2v-.5h2Zm-4,0h-2v-.5h2Zm-4,0h-2v-.5h2Zm-4,0h-2v-.5h2Zm-4,0h-2v-.5h2Zm-4,0h-2v-.5h2Zm-4,0h-2v-.5h2Zm-4,0h-2v-.5h2Zm-4,0h-2v-.5h2Zm-4,0h-2v-.5h2Zm-4,0h-2v-.5h2Zm-4,0h-2v-.5h2Zm-4,0h-2v-.5h2Zm-4,0h-2v-.5h2Zm-4,0h-2v-.5h2Zm-4,0h-2v-.5h2Zm-4,0h-2v-.5h2Zm-4,0h-2v-.5h2Zm-4,0h-2v-.5h2Zm-4,0h-2v-.5h2Zm-4,0h-2v-.5h2Zm-4,0h-2v-.5h2Zm-4,0h-2v-.5h2Zm-4,0h-2v-.5h2Zm-4,0h-2v-.5h2Zm-4,0h-2v-.5h2Zm-4,0h-2v-.5h2Zm-4,0h-2v-.5h2Zm-4,0h-2v-.5h2Zm-4,0h-2v-.5h2Zm-4,0h-2v-.5h2Zm-4,0h-2v-.5h2Zm-4,0h-2v-.5h2Zm-4,0h-2v-.5h2Zm-4,0h-2v-.5h2Zm-4,0h-2v-.5h2Zm-4,0h-2v-.5h2Zm-4,0h-2v-.5h2Zm-4,0h-2v-.5h2Zm-4,0h-2v-.5h2Zm-4,0h-2v-.5h2Zm-4,0h-2v-.5h2Zm-4,0h-2v-.5h2Zm-4,0h-2v-.5h2Zm-4,0h-2v-.5h2Zm-4,0h-2v-.5h2Zm-4,0h-2v-.5h2Zm-4,0h-2v-.5h2Zm-4,0h-2v-.5h2Zm-4,0h-2v-.5h2Zm-4,0h-2v-.5h2Zm-4,0h-2v-.5h2Zm-4,0h-2v-.5h2Zm-4,0h-2v-.5h2Zm-4,0h-2v-.5h2Zm-4,0h-2v-.5h2Zm-4,0h-2v-.5h2Zm-4,0h-2v-.5h2Zm-4,0h-2v-.5h2Zm-4,0h-2v-.5h2Zm-4,0h-2v-.5h2Zm-4,0h-2v-.5h2Zm-4,0h-2v-.5h2Zm-4,0h-2v-.5h2Zm-4,0h-2v-.5h2Zm-4,0h-2v-.5h2Zm-4,0h-2v-.5h2Zm-4,0h-2v-.5h2Zm-4,0h-2v-.5h2Zm-4,0h-2v-.5h2Zm-4,0h-2v-.5h2Zm-4,0h-2v-.5h2Zm-4,0h-2v-.5h2Zm-4,0h-2v-.5h2Zm-4,0h-2v-.5h2Zm-4,0h-2v-.5h2Zm-4,0h-2v-.5h2Zm-4,0h-2v-.5h2Zm-4,0h-2v-.5h2Zm-4,0h-2v-.5h2Zm-4,0h-2v-.5h2Zm-4,0h-2v-.5h2Zm-4,0h-2v-.5h2Zm-4,0h-2v-.5h2Zm-4,0h-2v-.5h2Zm-4,0h-2v-.5h2Zm-4,0h-2v-.5h2Zm-4,0h-2v-.5h2Zm-4,0h-2v-.5h2Zm-4,0h-2v-.5h2Zm-4,0h-2v-.5h2Zm-4,0h-2v-.5h2Zm-4,0h-2v-.5h2Zm-4,0h-2v-.5h2Zm-4,0h-2v-.5h2Zm-4,0h-2v-.5h2Zm-4,0h-2v-.5h2Zm-4,0h-2v-.5h2Zm-4,0h-2v-.5h2Zm-4,0h-2v-.5h2Zm-4,0h-2v-.5h2Zm-4,0h-2v-.5h2Zm-4,0h-2v-.5h2Zm-4,0h-2v-.5h2Zm-4,0h-2v-.5h2Zm-4,0h-2v-.5h2Zm-4,0h-2v-.5h2Zm-4,0h-2v-.5h2Zm-4,0h-2v-.5h2Zm-4,0h-2v-.5h2Zm-4,0h-2v-.5h2Zm-4,0h-2v-.5h2Zm-4,0h-2v-.5h2Zm-4,0h-2v-.5h2Zm-4,0h-2v-.5h2Zm-4,0h-2v-.5h2Zm-4,0h-2v-.5h2Zm-4,0h-2v-.5h2Zm-4,0h-2v-.5h2Zm-4,0h-2v-.5h2Zm-4,0h-2v-.5h2Zm-4,0h-2v-.5h2Zm-4,0h-2v-.5h2Zm-4,0h-2v-.5h2Zm-4,0h-2v-.5h2Zm-4,0h-2v-.5h2Zm-4,0h-2v-.5h2Zm-4,0h-2v-.5h2Zm-4,0H96v-.5h2Zm-4,0H92v-.5h2Zm-4,0H88v-.5h2Zm-4,0H84v-.5h2Zm-4,0H80v-.5h2Zm-4,0H76v-.5h2Zm-4,0H72v-.5h2Zm-4,0H68v-.5h2Zm-4,0H64v-.5h2Zm-4,0H60v-.5h2Zm-4,0H56v-.5h2Zm-4,0H52v-.5h2Zm-4,0H48v-.5h2Zm-4,0H44v-.5h2Zm-4,0H40v-.5h2Zm-4,0H36v-.5h2Zm-4,0H32v-.5h2Zm-4,0H28v-.5h2Zm-4,0H24v-.5h2Zm-4,0H20v-.5h2Zm-4,0H16v-.5h2Zm-4,0H12v-.5h2Zm-4,0H8v-.5h2Zm-4,0H4v-.5H6Zm-4,0H0v-.5H2Z" transform="translate(360 521)" fill="rgba(0,0,0,0.15)"/>
    <path id="Line_188" data-name="Line 188" d="M666,.25h-2v-.5h2Zm-4,0h-2v-.5h2Zm-4,0h-2v-.5h2Zm-4,0h-2v-.5h2Zm-4,0h-2v-.5h2Zm-4,0h-2v-.5h2Zm-4,0h-2v-.5h2Zm-4,0h-2v-.5h2Zm-4,0h-2v-.5h2Zm-4,0h-2v-.5h2Zm-4,0h-2v-.5h2Zm-4,0h-2v-.5h2Zm-4,0h-2v-.5h2Zm-4,0h-2v-.5h2Zm-4,0h-2v-.5h2Zm-4,0h-2v-.5h2Zm-4,0h-2v-.5h2Zm-4,0h-2v-.5h2Zm-4,0h-2v-.5h2Zm-4,0h-2v-.5h2Zm-4,0h-2v-.5h2Zm-4,0h-2v-.5h2Zm-4,0h-2v-.5h2Zm-4,0h-2v-.5h2Zm-4,0h-2v-.5h2Zm-4,0h-2v-.5h2Zm-4,0h-2v-.5h2Zm-4,0h-2v-.5h2Zm-4,0h-2v-.5h2Zm-4,0h-2v-.5h2Zm-4,0h-2v-.5h2Zm-4,0h-2v-.5h2Zm-4,0h-2v-.5h2Zm-4,0h-2v-.5h2Zm-4,0h-2v-.5h2Zm-4,0h-2v-.5h2Zm-4,0h-2v-.5h2Zm-4,0h-2v-.5h2Zm-4,0h-2v-.5h2Zm-4,0h-2v-.5h2Zm-4,0h-2v-.5h2Zm-4,0h-2v-.5h2Zm-4,0h-2v-.5h2Zm-4,0h-2v-.5h2Zm-4,0h-2v-.5h2Zm-4,0h-2v-.5h2Zm-4,0h-2v-.5h2Zm-4,0h-2v-.5h2Zm-4,0h-2v-.5h2Zm-4,0h-2v-.5h2Zm-4,0h-2v-.5h2Zm-4,0h-2v-.5h2Zm-4,0h-2v-.5h2Zm-4,0h-2v-.5h2Zm-4,0h-2v-.5h2Zm-4,0h-2v-.5h2Zm-4,0h-2v-.5h2Zm-4,0h-2v-.5h2Zm-4,0h-2v-.5h2Zm-4,0h-2v-.5h2Zm-4,0h-2v-.5h2Zm-4,0h-2v-.5h2Zm-4,0h-2v-.5h2Zm-4,0h-2v-.5h2Zm-4,0h-2v-.5h2Zm-4,0h-2v-.5h2Zm-4,0h-2v-.5h2Zm-4,0h-2v-.5h2Zm-4,0h-2v-.5h2Zm-4,0h-2v-.5h2Zm-4,0h-2v-.5h2Zm-4,0h-2v-.5h2Zm-4,0h-2v-.5h2Zm-4,0h-2v-.5h2Zm-4,0h-2v-.5h2Zm-4,0h-2v-.5h2Zm-4,0h-2v-.5h2Zm-4,0h-2v-.5h2Zm-4,0h-2v-.5h2Zm-4,0h-2v-.5h2Zm-4,0h-2v-.5h2Zm-4,0h-2v-.5h2Zm-4,0h-2v-.5h2Zm-4,0h-2v-.5h2Zm-4,0h-2v-.5h2Zm-4,0h-2v-.5h2Zm-4,0h-2v-.5h2Zm-4,0h-2v-.5h2Zm-4,0h-2v-.5h2Zm-4,0h-2v-.5h2Zm-4,0h-2v-.5h2Zm-4,0h-2v-.5h2Zm-4,0h-2v-.5h2Zm-4,0h-2v-.5h2Zm-4,0h-2v-.5h2Zm-4,0h-2v-.5h2Zm-4,0h-2v-.5h2Zm-4,0h-2v-.5h2Zm-4,0h-2v-.5h2Zm-4,0h-2v-.5h2Zm-4,0h-2v-.5h2Zm-4,0h-2v-.5h2Zm-4,0h-2v-.5h2Zm-4,0h-2v-.5h2Zm-4,0h-2v-.5h2Zm-4,0h-2v-.5h2Zm-4,0h-2v-.5h2Zm-4,0h-2v-.5h2Zm-4,0h-2v-.5h2Zm-4,0h-2v-.5h2Zm-4,0h-2v-.5h2Zm-4,0h-2v-.5h2Zm-4,0h-2v-.5h2Zm-4,0h-2v-.5h2Zm-4,0h-2v-.5h2Zm-4,0h-2v-.5h2Zm-4,0h-2v-.5h2Zm-4,0h-2v-.5h2Zm-4,0h-2v-.5h2Zm-4,0h-2v-.5h2Zm-4,0h-2v-.5h2Zm-4,0h-2v-.5h2Zm-4,0h-2v-.5h2Zm-4,0h-2v-.5h2Zm-4,0h-2v-.5h2Zm-4,0h-2v-.5h2Zm-4,0h-2v-.5h2Zm-4,0h-2v-.5h2Zm-4,0h-2v-.5h2Zm-4,0h-2v-.5h2Zm-4,0h-2v-.5h2Zm-4,0h-2v-.5h2Zm-4,0h-2v-.5h2Zm-4,0h-2v-.5h2Zm-4,0h-2v-.5h2Zm-4,0h-2v-.5h2Zm-4,0h-2v-.5h2Zm-4,0h-2v-.5h2Zm-4,0h-2v-.5h2Zm-4,0h-2v-.5h2Zm-4,0h-2v-.5h2Zm-4,0h-2v-.5h2Zm-4,0H96v-.5h2Zm-4,0H92v-.5h2Zm-4,0H88v-.5h2Zm-4,0H84v-.5h2Zm-4,0H80v-.5h2Zm-4,0H76v-.5h2Zm-4,0H72v-.5h2Zm-4,0H68v-.5h2Zm-4,0H64v-.5h2Zm-4,0H60v-.5h2Zm-4,0H56v-.5h2Zm-4,0H52v-.5h2Zm-4,0H48v-.5h2Zm-4,0H44v-.5h2Zm-4,0H40v-.5h2Zm-4,0H36v-.5h2Zm-4,0H32v-.5h2Zm-4,0H28v-.5h2Zm-4,0H24v-.5h2Zm-4,0H20v-.5h2Zm-4,0H16v-.5h2Zm-4,0H12v-.5h2Zm-4,0H8v-.5h2Zm-4,0H4v-.5H6Zm-4,0H0v-.5H2Z" transform="translate(360 486)" fill="rgba(0,0,0,0.15)"/>
    <path id="Line_189" data-name="Line 189" d="M666,.25h-2v-.5h2Zm-4,0h-2v-.5h2Zm-4,0h-2v-.5h2Zm-4,0h-2v-.5h2Zm-4,0h-2v-.5h2Zm-4,0h-2v-.5h2Zm-4,0h-2v-.5h2Zm-4,0h-2v-.5h2Zm-4,0h-2v-.5h2Zm-4,0h-2v-.5h2Zm-4,0h-2v-.5h2Zm-4,0h-2v-.5h2Zm-4,0h-2v-.5h2Zm-4,0h-2v-.5h2Zm-4,0h-2v-.5h2Zm-4,0h-2v-.5h2Zm-4,0h-2v-.5h2Zm-4,0h-2v-.5h2Zm-4,0h-2v-.5h2Zm-4,0h-2v-.5h2Zm-4,0h-2v-.5h2Zm-4,0h-2v-.5h2Zm-4,0h-2v-.5h2Zm-4,0h-2v-.5h2Zm-4,0h-2v-.5h2Zm-4,0h-2v-.5h2Zm-4,0h-2v-.5h2Zm-4,0h-2v-.5h2Zm-4,0h-2v-.5h2Zm-4,0h-2v-.5h2Zm-4,0h-2v-.5h2Zm-4,0h-2v-.5h2Zm-4,0h-2v-.5h2Zm-4,0h-2v-.5h2Zm-4,0h-2v-.5h2Zm-4,0h-2v-.5h2Zm-4,0h-2v-.5h2Zm-4,0h-2v-.5h2Zm-4,0h-2v-.5h2Zm-4,0h-2v-.5h2Zm-4,0h-2v-.5h2Zm-4,0h-2v-.5h2Zm-4,0h-2v-.5h2Zm-4,0h-2v-.5h2Zm-4,0h-2v-.5h2Zm-4,0h-2v-.5h2Zm-4,0h-2v-.5h2Zm-4,0h-2v-.5h2Zm-4,0h-2v-.5h2Zm-4,0h-2v-.5h2Zm-4,0h-2v-.5h2Zm-4,0h-2v-.5h2Zm-4,0h-2v-.5h2Zm-4,0h-2v-.5h2Zm-4,0h-2v-.5h2Zm-4,0h-2v-.5h2Zm-4,0h-2v-.5h2Zm-4,0h-2v-.5h2Zm-4,0h-2v-.5h2Zm-4,0h-2v-.5h2Zm-4,0h-2v-.5h2Zm-4,0h-2v-.5h2Zm-4,0h-2v-.5h2Zm-4,0h-2v-.5h2Zm-4,0h-2v-.5h2Zm-4,0h-2v-.5h2Zm-4,0h-2v-.5h2Zm-4,0h-2v-.5h2Zm-4,0h-2v-.5h2Zm-4,0h-2v-.5h2Zm-4,0h-2v-.5h2Zm-4,0h-2v-.5h2Zm-4,0h-2v-.5h2Zm-4,0h-2v-.5h2Zm-4,0h-2v-.5h2Zm-4,0h-2v-.5h2Zm-4,0h-2v-.5h2Zm-4,0h-2v-.5h2Zm-4,0h-2v-.5h2Zm-4,0h-2v-.5h2Zm-4,0h-2v-.5h2Zm-4,0h-2v-.5h2Zm-4,0h-2v-.5h2Zm-4,0h-2v-.5h2Zm-4,0h-2v-.5h2Zm-4,0h-2v-.5h2Zm-4,0h-2v-.5h2Zm-4,0h-2v-.5h2Zm-4,0h-2v-.5h2Zm-4,0h-2v-.5h2Zm-4,0h-2v-.5h2Zm-4,0h-2v-.5h2Zm-4,0h-2v-.5h2Zm-4,0h-2v-.5h2Zm-4,0h-2v-.5h2Zm-4,0h-2v-.5h2Zm-4,0h-2v-.5h2Zm-4,0h-2v-.5h2Zm-4,0h-2v-.5h2Zm-4,0h-2v-.5h2Zm-4,0h-2v-.5h2Zm-4,0h-2v-.5h2Zm-4,0h-2v-.5h2Zm-4,0h-2v-.5h2Zm-4,0h-2v-.5h2Zm-4,0h-2v-.5h2Zm-4,0h-2v-.5h2Zm-4,0h-2v-.5h2Zm-4,0h-2v-.5h2Zm-4,0h-2v-.5h2Zm-4,0h-2v-.5h2Zm-4,0h-2v-.5h2Zm-4,0h-2v-.5h2Zm-4,0h-2v-.5h2Zm-4,0h-2v-.5h2Zm-4,0h-2v-.5h2Zm-4,0h-2v-.5h2Zm-4,0h-2v-.5h2Zm-4,0h-2v-.5h2Zm-4,0h-2v-.5h2Zm-4,0h-2v-.5h2Zm-4,0h-2v-.5h2Zm-4,0h-2v-.5h2Zm-4,0h-2v-.5h2Zm-4,0h-2v-.5h2Zm-4,0h-2v-.5h2Zm-4,0h-2v-.5h2Zm-4,0h-2v-.5h2Zm-4,0h-2v-.5h2Zm-4,0h-2v-.5h2Zm-4,0h-2v-.5h2Zm-4,0h-2v-.5h2Zm-4,0h-2v-.5h2Zm-4,0h-2v-.5h2Zm-4,0h-2v-.5h2Zm-4,0h-2v-.5h2Zm-4,0h-2v-.5h2Zm-4,0h-2v-.5h2Zm-4,0h-2v-.5h2Zm-4,0h-2v-.5h2Zm-4,0h-2v-.5h2Zm-4,0h-2v-.5h2Zm-4,0H96v-.5h2Zm-4,0H92v-.5h2Zm-4,0H88v-.5h2Zm-4,0H84v-.5h2Zm-4,0H80v-.5h2Zm-4,0H76v-.5h2Zm-4,0H72v-.5h2Zm-4,0H68v-.5h2Zm-4,0H64v-.5h2Zm-4,0H60v-.5h2Zm-4,0H56v-.5h2Zm-4,0H52v-.5h2Zm-4,0H48v-.5h2Zm-4,0H44v-.5h2Zm-4,0H40v-.5h2Zm-4,0H36v-.5h2Zm-4,0H32v-.5h2Zm-4,0H28v-.5h2Zm-4,0H24v-.5h2Zm-4,0H20v-.5h2Zm-4,0H16v-.5h2Zm-4,0H12v-.5h2Zm-4,0H8v-.5h2Zm-4,0H4v-.5H6Zm-4,0H0v-.5H2Z" transform="translate(360 451)" fill="rgba(0,0,0,0.15)"/>
    <path id="Line_190" data-name="Line 190" d="M666,.25h-2v-.5h2Zm-4,0h-2v-.5h2Zm-4,0h-2v-.5h2Zm-4,0h-2v-.5h2Zm-4,0h-2v-.5h2Zm-4,0h-2v-.5h2Zm-4,0h-2v-.5h2Zm-4,0h-2v-.5h2Zm-4,0h-2v-.5h2Zm-4,0h-2v-.5h2Zm-4,0h-2v-.5h2Zm-4,0h-2v-.5h2Zm-4,0h-2v-.5h2Zm-4,0h-2v-.5h2Zm-4,0h-2v-.5h2Zm-4,0h-2v-.5h2Zm-4,0h-2v-.5h2Zm-4,0h-2v-.5h2Zm-4,0h-2v-.5h2Zm-4,0h-2v-.5h2Zm-4,0h-2v-.5h2Zm-4,0h-2v-.5h2Zm-4,0h-2v-.5h2Zm-4,0h-2v-.5h2Zm-4,0h-2v-.5h2Zm-4,0h-2v-.5h2Zm-4,0h-2v-.5h2Zm-4,0h-2v-.5h2Zm-4,0h-2v-.5h2Zm-4,0h-2v-.5h2Zm-4,0h-2v-.5h2Zm-4,0h-2v-.5h2Zm-4,0h-2v-.5h2Zm-4,0h-2v-.5h2Zm-4,0h-2v-.5h2Zm-4,0h-2v-.5h2Zm-4,0h-2v-.5h2Zm-4,0h-2v-.5h2Zm-4,0h-2v-.5h2Zm-4,0h-2v-.5h2Zm-4,0h-2v-.5h2Zm-4,0h-2v-.5h2Zm-4,0h-2v-.5h2Zm-4,0h-2v-.5h2Zm-4,0h-2v-.5h2Zm-4,0h-2v-.5h2Zm-4,0h-2v-.5h2Zm-4,0h-2v-.5h2Zm-4,0h-2v-.5h2Zm-4,0h-2v-.5h2Zm-4,0h-2v-.5h2Zm-4,0h-2v-.5h2Zm-4,0h-2v-.5h2Zm-4,0h-2v-.5h2Zm-4,0h-2v-.5h2Zm-4,0h-2v-.5h2Zm-4,0h-2v-.5h2Zm-4,0h-2v-.5h2Zm-4,0h-2v-.5h2Zm-4,0h-2v-.5h2Zm-4,0h-2v-.5h2Zm-4,0h-2v-.5h2Zm-4,0h-2v-.5h2Zm-4,0h-2v-.5h2Zm-4,0h-2v-.5h2Zm-4,0h-2v-.5h2Zm-4,0h-2v-.5h2Zm-4,0h-2v-.5h2Zm-4,0h-2v-.5h2Zm-4,0h-2v-.5h2Zm-4,0h-2v-.5h2Zm-4,0h-2v-.5h2Zm-4,0h-2v-.5h2Zm-4,0h-2v-.5h2Zm-4,0h-2v-.5h2Zm-4,0h-2v-.5h2Zm-4,0h-2v-.5h2Zm-4,0h-2v-.5h2Zm-4,0h-2v-.5h2Zm-4,0h-2v-.5h2Zm-4,0h-2v-.5h2Zm-4,0h-2v-.5h2Zm-4,0h-2v-.5h2Zm-4,0h-2v-.5h2Zm-4,0h-2v-.5h2Zm-4,0h-2v-.5h2Zm-4,0h-2v-.5h2Zm-4,0h-2v-.5h2Zm-4,0h-2v-.5h2Zm-4,0h-2v-.5h2Zm-4,0h-2v-.5h2Zm-4,0h-2v-.5h2Zm-4,0h-2v-.5h2Zm-4,0h-2v-.5h2Zm-4,0h-2v-.5h2Zm-4,0h-2v-.5h2Zm-4,0h-2v-.5h2Zm-4,0h-2v-.5h2Zm-4,0h-2v-.5h2Zm-4,0h-2v-.5h2Zm-4,0h-2v-.5h2Zm-4,0h-2v-.5h2Zm-4,0h-2v-.5h2Zm-4,0h-2v-.5h2Zm-4,0h-2v-.5h2Zm-4,0h-2v-.5h2Zm-4,0h-2v-.5h2Zm-4,0h-2v-.5h2Zm-4,0h-2v-.5h2Zm-4,0h-2v-.5h2Zm-4,0h-2v-.5h2Zm-4,0h-2v-.5h2Zm-4,0h-2v-.5h2Zm-4,0h-2v-.5h2Zm-4,0h-2v-.5h2Zm-4,0h-2v-.5h2Zm-4,0h-2v-.5h2Zm-4,0h-2v-.5h2Zm-4,0h-2v-.5h2Zm-4,0h-2v-.5h2Zm-4,0h-2v-.5h2Zm-4,0h-2v-.5h2Zm-4,0h-2v-.5h2Zm-4,0h-2v-.5h2Zm-4,0h-2v-.5h2Zm-4,0h-2v-.5h2Zm-4,0h-2v-.5h2Zm-4,0h-2v-.5h2Zm-4,0h-2v-.5h2Zm-4,0h-2v-.5h2Zm-4,0h-2v-.5h2Zm-4,0h-2v-.5h2Zm-4,0h-2v-.5h2Zm-4,0h-2v-.5h2Zm-4,0h-2v-.5h2Zm-4,0h-2v-.5h2Zm-4,0h-2v-.5h2Zm-4,0h-2v-.5h2Zm-4,0h-2v-.5h2Zm-4,0h-2v-.5h2Zm-4,0h-2v-.5h2Zm-4,0h-2v-.5h2Zm-4,0H96v-.5h2Zm-4,0H92v-.5h2Zm-4,0H88v-.5h2Zm-4,0H84v-.5h2Zm-4,0H80v-.5h2Zm-4,0H76v-.5h2Zm-4,0H72v-.5h2Zm-4,0H68v-.5h2Zm-4,0H64v-.5h2Zm-4,0H60v-.5h2Zm-4,0H56v-.5h2Zm-4,0H52v-.5h2Zm-4,0H48v-.5h2Zm-4,0H44v-.5h2Zm-4,0H40v-.5h2Zm-4,0H36v-.5h2Zm-4,0H32v-.5h2Zm-4,0H28v-.5h2Zm-4,0H24v-.5h2Zm-4,0H20v-.5h2Zm-4,0H16v-.5h2Zm-4,0H12v-.5h2Zm-4,0H8v-.5h2Zm-4,0H4v-.5H6Zm-4,0H0v-.5H2Z" transform="translate(360 416)" fill="rgba(0,0,0,0.15)"/>
    <text id="Jan" transform="translate(392 644)" fill="#0c345d" font-size="12" font-family="Poppins-Regular, Poppins"><tspan x="0" y="0">Jan</tspan></text>
    <text id="Feb" transform="translate(446 644)" fill="#0c345d" font-size="12" font-family="Poppins-Regular, Poppins"><tspan x="0" y="0">Feb</tspan></text>
    <text id="Mar" transform="translate(500 644)" fill="#0c345d" font-size="12" font-family="Poppins-Regular, Poppins"><tspan x="0" y="0">Mar</tspan></text>
    <text id="Apr" transform="translate(555 644)" fill="#0c345d" font-size="12" font-family="Poppins-Regular, Poppins"><tspan x="0" y="0">Apr</tspan></text>
    <text id="May" transform="translate(608 644)" fill="#0c345d" font-size="12" font-family="Poppins-Regular, Poppins"><tspan x="0" y="0">May</tspan></text>
    <text id="Jun" transform="translate(665 644)" fill="#0c345d" font-size="12" font-family="Poppins-Regular, Poppins"><tspan x="0" y="0">Jun</tspan></text>
    <text id="Jul" transform="translate(719 644)" fill="#0c345d" font-size="12" font-family="Poppins-Regular, Poppins"><tspan x="0" y="0">Jul</tspan></text>
    <text id="Aug" transform="translate(768 644)" fill="#0c345d" font-size="12" font-family="Poppins-Regular, Poppins"><tspan x="0" y="0">Aug</tspan></text>
    <text id="Sep" transform="translate(824 644)" fill="#0c345d" font-size="12" font-family="Poppins-Regular, Poppins"><tspan x="0" y="0">Sep</tspan></text>
    <text id="Oct" transform="translate(879 644)" fill="#0c345d" font-size="12" font-family="Poppins-Regular, Poppins"><tspan x="0" y="0">Oct</tspan></text>
    <text id="Nov" transform="translate(932 644)" fill="#0c345d" font-size="12" font-family="Poppins-Regular, Poppins"><tspan x="0" y="0">Nov</tspan></text>
    <text id="Dec" transform="translate(987 644)" fill="#0c345d" font-size="12" font-family="Poppins-Regular, Poppins"><tspan x="0" y="0">Dec</tspan></text>
    <text id="_0" data-name="0" transform="translate(356 644)" fill="#0c345d" font-size="12" font-family="Poppins-Regular, Poppins"><tspan x="0" y="0">0</tspan></text>
    <text id="_10" data-name="10" transform="translate(344 596)" fill="#0c345d" font-size="12" font-family="Poppins-Regular, Poppins"><tspan x="0" y="0">10</tspan></text>
    <text id="_20" data-name="20" transform="translate(341 561)" fill="#0c345d" font-size="12" font-family="Poppins-Regular, Poppins"><tspan x="0" y="0">20</tspan></text>
    <text id="_30" data-name="30" transform="translate(340 526)" fill="#0c345d" font-size="12" font-family="Poppins-Regular, Poppins"><tspan x="0" y="0">30</tspan></text>
    <text id="_40" data-name="40" transform="translate(340 491)" fill="#0c345d" font-size="12" font-family="Poppins-Regular, Poppins"><tspan x="0" y="0">40</tspan></text>
    <text id="_50" data-name="50" transform="translate(340 456)" fill="#0c345d" font-size="12" font-family="Poppins-Regular, Poppins"><tspan x="0" y="0">50</tspan></text>
    <text id="_60" data-name="60" transform="translate(340 421)" fill="#0c345d" font-size="12" font-family="Poppins-Regular, Poppins"><tspan x="0" y="0">60</tspan></text>
    <path id="Line_191" data-name="Line 191" d="M666,.25h-2v-.5h2Zm-4,0h-2v-.5h2Zm-4,0h-2v-.5h2Zm-4,0h-2v-.5h2Zm-4,0h-2v-.5h2Zm-4,0h-2v-.5h2Zm-4,0h-2v-.5h2Zm-4,0h-2v-.5h2Zm-4,0h-2v-.5h2Zm-4,0h-2v-.5h2Zm-4,0h-2v-.5h2Zm-4,0h-2v-.5h2Zm-4,0h-2v-.5h2Zm-4,0h-2v-.5h2Zm-4,0h-2v-.5h2Zm-4,0h-2v-.5h2Zm-4,0h-2v-.5h2Zm-4,0h-2v-.5h2Zm-4,0h-2v-.5h2Zm-4,0h-2v-.5h2Zm-4,0h-2v-.5h2Zm-4,0h-2v-.5h2Zm-4,0h-2v-.5h2Zm-4,0h-2v-.5h2Zm-4,0h-2v-.5h2Zm-4,0h-2v-.5h2Zm-4,0h-2v-.5h2Zm-4,0h-2v-.5h2Zm-4,0h-2v-.5h2Zm-4,0h-2v-.5h2Zm-4,0h-2v-.5h2Zm-4,0h-2v-.5h2Zm-4,0h-2v-.5h2Zm-4,0h-2v-.5h2Zm-4,0h-2v-.5h2Zm-4,0h-2v-.5h2Zm-4,0h-2v-.5h2Zm-4,0h-2v-.5h2Zm-4,0h-2v-.5h2Zm-4,0h-2v-.5h2Zm-4,0h-2v-.5h2Zm-4,0h-2v-.5h2Zm-4,0h-2v-.5h2Zm-4,0h-2v-.5h2Zm-4,0h-2v-.5h2Zm-4,0h-2v-.5h2Zm-4,0h-2v-.5h2Zm-4,0h-2v-.5h2Zm-4,0h-2v-.5h2Zm-4,0h-2v-.5h2Zm-4,0h-2v-.5h2Zm-4,0h-2v-.5h2Zm-4,0h-2v-.5h2Zm-4,0h-2v-.5h2Zm-4,0h-2v-.5h2Zm-4,0h-2v-.5h2Zm-4,0h-2v-.5h2Zm-4,0h-2v-.5h2Zm-4,0h-2v-.5h2Zm-4,0h-2v-.5h2Zm-4,0h-2v-.5h2Zm-4,0h-2v-.5h2Zm-4,0h-2v-.5h2Zm-4,0h-2v-.5h2Zm-4,0h-2v-.5h2Zm-4,0h-2v-.5h2Zm-4,0h-2v-.5h2Zm-4,0h-2v-.5h2Zm-4,0h-2v-.5h2Zm-4,0h-2v-.5h2Zm-4,0h-2v-.5h2Zm-4,0h-2v-.5h2Zm-4,0h-2v-.5h2Zm-4,0h-2v-.5h2Zm-4,0h-2v-.5h2Zm-4,0h-2v-.5h2Zm-4,0h-2v-.5h2Zm-4,0h-2v-.5h2Zm-4,0h-2v-.5h2Zm-4,0h-2v-.5h2Zm-4,0h-2v-.5h2Zm-4,0h-2v-.5h2Zm-4,0h-2v-.5h2Zm-4,0h-2v-.5h2Zm-4,0h-2v-.5h2Zm-4,0h-2v-.5h2Zm-4,0h-2v-.5h2Zm-4,0h-2v-.5h2Zm-4,0h-2v-.5h2Zm-4,0h-2v-.5h2Zm-4,0h-2v-.5h2Zm-4,0h-2v-.5h2Zm-4,0h-2v-.5h2Zm-4,0h-2v-.5h2Zm-4,0h-2v-.5h2Zm-4,0h-2v-.5h2Zm-4,0h-2v-.5h2Zm-4,0h-2v-.5h2Zm-4,0h-2v-.5h2Zm-4,0h-2v-.5h2Zm-4,0h-2v-.5h2Zm-4,0h-2v-.5h2Zm-4,0h-2v-.5h2Zm-4,0h-2v-.5h2Zm-4,0h-2v-.5h2Zm-4,0h-2v-.5h2Zm-4,0h-2v-.5h2Zm-4,0h-2v-.5h2Zm-4,0h-2v-.5h2Zm-4,0h-2v-.5h2Zm-4,0h-2v-.5h2Zm-4,0h-2v-.5h2Zm-4,0h-2v-.5h2Zm-4,0h-2v-.5h2Zm-4,0h-2v-.5h2Zm-4,0h-2v-.5h2Zm-4,0h-2v-.5h2Zm-4,0h-2v-.5h2Zm-4,0h-2v-.5h2Zm-4,0h-2v-.5h2Zm-4,0h-2v-.5h2Zm-4,0h-2v-.5h2Zm-4,0h-2v-.5h2Zm-4,0h-2v-.5h2Zm-4,0h-2v-.5h2Zm-4,0h-2v-.5h2Zm-4,0h-2v-.5h2Zm-4,0h-2v-.5h2Zm-4,0h-2v-.5h2Zm-4,0h-2v-.5h2Zm-4,0h-2v-.5h2Zm-4,0h-2v-.5h2Zm-4,0h-2v-.5h2Zm-4,0h-2v-.5h2Zm-4,0h-2v-.5h2Zm-4,0h-2v-.5h2Zm-4,0h-2v-.5h2Zm-4,0h-2v-.5h2Zm-4,0h-2v-.5h2Zm-4,0h-2v-.5h2Zm-4,0h-2v-.5h2Zm-4,0h-2v-.5h2Zm-4,0H96v-.5h2Zm-4,0H92v-.5h2Zm-4,0H88v-.5h2Zm-4,0H84v-.5h2Zm-4,0H80v-.5h2Zm-4,0H76v-.5h2Zm-4,0H72v-.5h2Zm-4,0H68v-.5h2Zm-4,0H64v-.5h2Zm-4,0H60v-.5h2Zm-4,0H56v-.5h2Zm-4,0H52v-.5h2Zm-4,0H48v-.5h2Zm-4,0H44v-.5h2Zm-4,0H40v-.5h2Zm-4,0H36v-.5h2Zm-4,0H32v-.5h2Zm-4,0H28v-.5h2Zm-4,0H24v-.5h2Zm-4,0H20v-.5h2Zm-4,0H16v-.5h2Zm-4,0H12v-.5h2Zm-4,0H8v-.5h2Zm-4,0H4v-.5H6Zm-4,0H0v-.5H2Z" transform="translate(360 381)" fill="rgba(0,0,0,0.15)"/>
    <path id="Line_192" data-name="Line 192" d="M666,.25h-2v-.5h2Zm-4,0h-2v-.5h2Zm-4,0h-2v-.5h2Zm-4,0h-2v-.5h2Zm-4,0h-2v-.5h2Zm-4,0h-2v-.5h2Zm-4,0h-2v-.5h2Zm-4,0h-2v-.5h2Zm-4,0h-2v-.5h2Zm-4,0h-2v-.5h2Zm-4,0h-2v-.5h2Zm-4,0h-2v-.5h2Zm-4,0h-2v-.5h2Zm-4,0h-2v-.5h2Zm-4,0h-2v-.5h2Zm-4,0h-2v-.5h2Zm-4,0h-2v-.5h2Zm-4,0h-2v-.5h2Zm-4,0h-2v-.5h2Zm-4,0h-2v-.5h2Zm-4,0h-2v-.5h2Zm-4,0h-2v-.5h2Zm-4,0h-2v-.5h2Zm-4,0h-2v-.5h2Zm-4,0h-2v-.5h2Zm-4,0h-2v-.5h2Zm-4,0h-2v-.5h2Zm-4,0h-2v-.5h2Zm-4,0h-2v-.5h2Zm-4,0h-2v-.5h2Zm-4,0h-2v-.5h2Zm-4,0h-2v-.5h2Zm-4,0h-2v-.5h2Zm-4,0h-2v-.5h2Zm-4,0h-2v-.5h2Zm-4,0h-2v-.5h2Zm-4,0h-2v-.5h2Zm-4,0h-2v-.5h2Zm-4,0h-2v-.5h2Zm-4,0h-2v-.5h2Zm-4,0h-2v-.5h2Zm-4,0h-2v-.5h2Zm-4,0h-2v-.5h2Zm-4,0h-2v-.5h2Zm-4,0h-2v-.5h2Zm-4,0h-2v-.5h2Zm-4,0h-2v-.5h2Zm-4,0h-2v-.5h2Zm-4,0h-2v-.5h2Zm-4,0h-2v-.5h2Zm-4,0h-2v-.5h2Zm-4,0h-2v-.5h2Zm-4,0h-2v-.5h2Zm-4,0h-2v-.5h2Zm-4,0h-2v-.5h2Zm-4,0h-2v-.5h2Zm-4,0h-2v-.5h2Zm-4,0h-2v-.5h2Zm-4,0h-2v-.5h2Zm-4,0h-2v-.5h2Zm-4,0h-2v-.5h2Zm-4,0h-2v-.5h2Zm-4,0h-2v-.5h2Zm-4,0h-2v-.5h2Zm-4,0h-2v-.5h2Zm-4,0h-2v-.5h2Zm-4,0h-2v-.5h2Zm-4,0h-2v-.5h2Zm-4,0h-2v-.5h2Zm-4,0h-2v-.5h2Zm-4,0h-2v-.5h2Zm-4,0h-2v-.5h2Zm-4,0h-2v-.5h2Zm-4,0h-2v-.5h2Zm-4,0h-2v-.5h2Zm-4,0h-2v-.5h2Zm-4,0h-2v-.5h2Zm-4,0h-2v-.5h2Zm-4,0h-2v-.5h2Zm-4,0h-2v-.5h2Zm-4,0h-2v-.5h2Zm-4,0h-2v-.5h2Zm-4,0h-2v-.5h2Zm-4,0h-2v-.5h2Zm-4,0h-2v-.5h2Zm-4,0h-2v-.5h2Zm-4,0h-2v-.5h2Zm-4,0h-2v-.5h2Zm-4,0h-2v-.5h2Zm-4,0h-2v-.5h2Zm-4,0h-2v-.5h2Zm-4,0h-2v-.5h2Zm-4,0h-2v-.5h2Zm-4,0h-2v-.5h2Zm-4,0h-2v-.5h2Zm-4,0h-2v-.5h2Zm-4,0h-2v-.5h2Zm-4,0h-2v-.5h2Zm-4,0h-2v-.5h2Zm-4,0h-2v-.5h2Zm-4,0h-2v-.5h2Zm-4,0h-2v-.5h2Zm-4,0h-2v-.5h2Zm-4,0h-2v-.5h2Zm-4,0h-2v-.5h2Zm-4,0h-2v-.5h2Zm-4,0h-2v-.5h2Zm-4,0h-2v-.5h2Zm-4,0h-2v-.5h2Zm-4,0h-2v-.5h2Zm-4,0h-2v-.5h2Zm-4,0h-2v-.5h2Zm-4,0h-2v-.5h2Zm-4,0h-2v-.5h2Zm-4,0h-2v-.5h2Zm-4,0h-2v-.5h2Zm-4,0h-2v-.5h2Zm-4,0h-2v-.5h2Zm-4,0h-2v-.5h2Zm-4,0h-2v-.5h2Zm-4,0h-2v-.5h2Zm-4,0h-2v-.5h2Zm-4,0h-2v-.5h2Zm-4,0h-2v-.5h2Zm-4,0h-2v-.5h2Zm-4,0h-2v-.5h2Zm-4,0h-2v-.5h2Zm-4,0h-2v-.5h2Zm-4,0h-2v-.5h2Zm-4,0h-2v-.5h2Zm-4,0h-2v-.5h2Zm-4,0h-2v-.5h2Zm-4,0h-2v-.5h2Zm-4,0h-2v-.5h2Zm-4,0h-2v-.5h2Zm-4,0h-2v-.5h2Zm-4,0h-2v-.5h2Zm-4,0h-2v-.5h2Zm-4,0h-2v-.5h2Zm-4,0h-2v-.5h2Zm-4,0h-2v-.5h2Zm-4,0h-2v-.5h2Zm-4,0H96v-.5h2Zm-4,0H92v-.5h2Zm-4,0H88v-.5h2Zm-4,0H84v-.5h2Zm-4,0H80v-.5h2Zm-4,0H76v-.5h2Zm-4,0H72v-.5h2Zm-4,0H68v-.5h2Zm-4,0H64v-.5h2Zm-4,0H60v-.5h2Zm-4,0H56v-.5h2Zm-4,0H52v-.5h2Zm-4,0H48v-.5h2Zm-4,0H44v-.5h2Zm-4,0H40v-.5h2Zm-4,0H36v-.5h2Zm-4,0H32v-.5h2Zm-4,0H28v-.5h2Zm-4,0H24v-.5h2Zm-4,0H20v-.5h2Zm-4,0H16v-.5h2Zm-4,0H12v-.5h2Zm-4,0H8v-.5h2Zm-4,0H4v-.5H6Zm-4,0H0v-.5H2Z" transform="translate(360 346)" fill="rgba(0,0,0,0.15)"/>
    <path id="Line_193" data-name="Line 193" d="M666,.25h-2v-.5h2Zm-4,0h-2v-.5h2Zm-4,0h-2v-.5h2Zm-4,0h-2v-.5h2Zm-4,0h-2v-.5h2Zm-4,0h-2v-.5h2Zm-4,0h-2v-.5h2Zm-4,0h-2v-.5h2Zm-4,0h-2v-.5h2Zm-4,0h-2v-.5h2Zm-4,0h-2v-.5h2Zm-4,0h-2v-.5h2Zm-4,0h-2v-.5h2Zm-4,0h-2v-.5h2Zm-4,0h-2v-.5h2Zm-4,0h-2v-.5h2Zm-4,0h-2v-.5h2Zm-4,0h-2v-.5h2Zm-4,0h-2v-.5h2Zm-4,0h-2v-.5h2Zm-4,0h-2v-.5h2Zm-4,0h-2v-.5h2Zm-4,0h-2v-.5h2Zm-4,0h-2v-.5h2Zm-4,0h-2v-.5h2Zm-4,0h-2v-.5h2Zm-4,0h-2v-.5h2Zm-4,0h-2v-.5h2Zm-4,0h-2v-.5h2Zm-4,0h-2v-.5h2Zm-4,0h-2v-.5h2Zm-4,0h-2v-.5h2Zm-4,0h-2v-.5h2Zm-4,0h-2v-.5h2Zm-4,0h-2v-.5h2Zm-4,0h-2v-.5h2Zm-4,0h-2v-.5h2Zm-4,0h-2v-.5h2Zm-4,0h-2v-.5h2Zm-4,0h-2v-.5h2Zm-4,0h-2v-.5h2Zm-4,0h-2v-.5h2Zm-4,0h-2v-.5h2Zm-4,0h-2v-.5h2Zm-4,0h-2v-.5h2Zm-4,0h-2v-.5h2Zm-4,0h-2v-.5h2Zm-4,0h-2v-.5h2Zm-4,0h-2v-.5h2Zm-4,0h-2v-.5h2Zm-4,0h-2v-.5h2Zm-4,0h-2v-.5h2Zm-4,0h-2v-.5h2Zm-4,0h-2v-.5h2Zm-4,0h-2v-.5h2Zm-4,0h-2v-.5h2Zm-4,0h-2v-.5h2Zm-4,0h-2v-.5h2Zm-4,0h-2v-.5h2Zm-4,0h-2v-.5h2Zm-4,0h-2v-.5h2Zm-4,0h-2v-.5h2Zm-4,0h-2v-.5h2Zm-4,0h-2v-.5h2Zm-4,0h-2v-.5h2Zm-4,0h-2v-.5h2Zm-4,0h-2v-.5h2Zm-4,0h-2v-.5h2Zm-4,0h-2v-.5h2Zm-4,0h-2v-.5h2Zm-4,0h-2v-.5h2Zm-4,0h-2v-.5h2Zm-4,0h-2v-.5h2Zm-4,0h-2v-.5h2Zm-4,0h-2v-.5h2Zm-4,0h-2v-.5h2Zm-4,0h-2v-.5h2Zm-4,0h-2v-.5h2Zm-4,0h-2v-.5h2Zm-4,0h-2v-.5h2Zm-4,0h-2v-.5h2Zm-4,0h-2v-.5h2Zm-4,0h-2v-.5h2Zm-4,0h-2v-.5h2Zm-4,0h-2v-.5h2Zm-4,0h-2v-.5h2Zm-4,0h-2v-.5h2Zm-4,0h-2v-.5h2Zm-4,0h-2v-.5h2Zm-4,0h-2v-.5h2Zm-4,0h-2v-.5h2Zm-4,0h-2v-.5h2Zm-4,0h-2v-.5h2Zm-4,0h-2v-.5h2Zm-4,0h-2v-.5h2Zm-4,0h-2v-.5h2Zm-4,0h-2v-.5h2Zm-4,0h-2v-.5h2Zm-4,0h-2v-.5h2Zm-4,0h-2v-.5h2Zm-4,0h-2v-.5h2Zm-4,0h-2v-.5h2Zm-4,0h-2v-.5h2Zm-4,0h-2v-.5h2Zm-4,0h-2v-.5h2Zm-4,0h-2v-.5h2Zm-4,0h-2v-.5h2Zm-4,0h-2v-.5h2Zm-4,0h-2v-.5h2Zm-4,0h-2v-.5h2Zm-4,0h-2v-.5h2Zm-4,0h-2v-.5h2Zm-4,0h-2v-.5h2Zm-4,0h-2v-.5h2Zm-4,0h-2v-.5h2Zm-4,0h-2v-.5h2Zm-4,0h-2v-.5h2Zm-4,0h-2v-.5h2Zm-4,0h-2v-.5h2Zm-4,0h-2v-.5h2Zm-4,0h-2v-.5h2Zm-4,0h-2v-.5h2Zm-4,0h-2v-.5h2Zm-4,0h-2v-.5h2Zm-4,0h-2v-.5h2Zm-4,0h-2v-.5h2Zm-4,0h-2v-.5h2Zm-4,0h-2v-.5h2Zm-4,0h-2v-.5h2Zm-4,0h-2v-.5h2Zm-4,0h-2v-.5h2Zm-4,0h-2v-.5h2Zm-4,0h-2v-.5h2Zm-4,0h-2v-.5h2Zm-4,0h-2v-.5h2Zm-4,0h-2v-.5h2Zm-4,0h-2v-.5h2Zm-4,0h-2v-.5h2Zm-4,0h-2v-.5h2Zm-4,0h-2v-.5h2Zm-4,0h-2v-.5h2Zm-4,0h-2v-.5h2Zm-4,0H96v-.5h2Zm-4,0H92v-.5h2Zm-4,0H88v-.5h2Zm-4,0H84v-.5h2Zm-4,0H80v-.5h2Zm-4,0H76v-.5h2Zm-4,0H72v-.5h2Zm-4,0H68v-.5h2Zm-4,0H64v-.5h2Zm-4,0H60v-.5h2Zm-4,0H56v-.5h2Zm-4,0H52v-.5h2Zm-4,0H48v-.5h2Zm-4,0H44v-.5h2Zm-4,0H40v-.5h2Zm-4,0H36v-.5h2Zm-4,0H32v-.5h2Zm-4,0H28v-.5h2Zm-4,0H24v-.5h2Zm-4,0H20v-.5h2Zm-4,0H16v-.5h2Zm-4,0H12v-.5h2Zm-4,0H8v-.5h2Zm-4,0H4v-.5H6Zm-4,0H0v-.5H2Z" transform="translate(360 311)" fill="rgba(0,0,0,0.15)"/>
    <path id="Line_194" data-name="Line 194" d="M666,.25h-2v-.5h2Zm-4,0h-2v-.5h2Zm-4,0h-2v-.5h2Zm-4,0h-2v-.5h2Zm-4,0h-2v-.5h2Zm-4,0h-2v-.5h2Zm-4,0h-2v-.5h2Zm-4,0h-2v-.5h2Zm-4,0h-2v-.5h2Zm-4,0h-2v-.5h2Zm-4,0h-2v-.5h2Zm-4,0h-2v-.5h2Zm-4,0h-2v-.5h2Zm-4,0h-2v-.5h2Zm-4,0h-2v-.5h2Zm-4,0h-2v-.5h2Zm-4,0h-2v-.5h2Zm-4,0h-2v-.5h2Zm-4,0h-2v-.5h2Zm-4,0h-2v-.5h2Zm-4,0h-2v-.5h2Zm-4,0h-2v-.5h2Zm-4,0h-2v-.5h2Zm-4,0h-2v-.5h2Zm-4,0h-2v-.5h2Zm-4,0h-2v-.5h2Zm-4,0h-2v-.5h2Zm-4,0h-2v-.5h2Zm-4,0h-2v-.5h2Zm-4,0h-2v-.5h2Zm-4,0h-2v-.5h2Zm-4,0h-2v-.5h2Zm-4,0h-2v-.5h2Zm-4,0h-2v-.5h2Zm-4,0h-2v-.5h2Zm-4,0h-2v-.5h2Zm-4,0h-2v-.5h2Zm-4,0h-2v-.5h2Zm-4,0h-2v-.5h2Zm-4,0h-2v-.5h2Zm-4,0h-2v-.5h2Zm-4,0h-2v-.5h2Zm-4,0h-2v-.5h2Zm-4,0h-2v-.5h2Zm-4,0h-2v-.5h2Zm-4,0h-2v-.5h2Zm-4,0h-2v-.5h2Zm-4,0h-2v-.5h2Zm-4,0h-2v-.5h2Zm-4,0h-2v-.5h2Zm-4,0h-2v-.5h2Zm-4,0h-2v-.5h2Zm-4,0h-2v-.5h2Zm-4,0h-2v-.5h2Zm-4,0h-2v-.5h2Zm-4,0h-2v-.5h2Zm-4,0h-2v-.5h2Zm-4,0h-2v-.5h2Zm-4,0h-2v-.5h2Zm-4,0h-2v-.5h2Zm-4,0h-2v-.5h2Zm-4,0h-2v-.5h2Zm-4,0h-2v-.5h2Zm-4,0h-2v-.5h2Zm-4,0h-2v-.5h2Zm-4,0h-2v-.5h2Zm-4,0h-2v-.5h2Zm-4,0h-2v-.5h2Zm-4,0h-2v-.5h2Zm-4,0h-2v-.5h2Zm-4,0h-2v-.5h2Zm-4,0h-2v-.5h2Zm-4,0h-2v-.5h2Zm-4,0h-2v-.5h2Zm-4,0h-2v-.5h2Zm-4,0h-2v-.5h2Zm-4,0h-2v-.5h2Zm-4,0h-2v-.5h2Zm-4,0h-2v-.5h2Zm-4,0h-2v-.5h2Zm-4,0h-2v-.5h2Zm-4,0h-2v-.5h2Zm-4,0h-2v-.5h2Zm-4,0h-2v-.5h2Zm-4,0h-2v-.5h2Zm-4,0h-2v-.5h2Zm-4,0h-2v-.5h2Zm-4,0h-2v-.5h2Zm-4,0h-2v-.5h2Zm-4,0h-2v-.5h2Zm-4,0h-2v-.5h2Zm-4,0h-2v-.5h2Zm-4,0h-2v-.5h2Zm-4,0h-2v-.5h2Zm-4,0h-2v-.5h2Zm-4,0h-2v-.5h2Zm-4,0h-2v-.5h2Zm-4,0h-2v-.5h2Zm-4,0h-2v-.5h2Zm-4,0h-2v-.5h2Zm-4,0h-2v-.5h2Zm-4,0h-2v-.5h2Zm-4,0h-2v-.5h2Zm-4,0h-2v-.5h2Zm-4,0h-2v-.5h2Zm-4,0h-2v-.5h2Zm-4,0h-2v-.5h2Zm-4,0h-2v-.5h2Zm-4,0h-2v-.5h2Zm-4,0h-2v-.5h2Zm-4,0h-2v-.5h2Zm-4,0h-2v-.5h2Zm-4,0h-2v-.5h2Zm-4,0h-2v-.5h2Zm-4,0h-2v-.5h2Zm-4,0h-2v-.5h2Zm-4,0h-2v-.5h2Zm-4,0h-2v-.5h2Zm-4,0h-2v-.5h2Zm-4,0h-2v-.5h2Zm-4,0h-2v-.5h2Zm-4,0h-2v-.5h2Zm-4,0h-2v-.5h2Zm-4,0h-2v-.5h2Zm-4,0h-2v-.5h2Zm-4,0h-2v-.5h2Zm-4,0h-2v-.5h2Zm-4,0h-2v-.5h2Zm-4,0h-2v-.5h2Zm-4,0h-2v-.5h2Zm-4,0h-2v-.5h2Zm-4,0h-2v-.5h2Zm-4,0h-2v-.5h2Zm-4,0h-2v-.5h2Zm-4,0h-2v-.5h2Zm-4,0h-2v-.5h2Zm-4,0h-2v-.5h2Zm-4,0h-2v-.5h2Zm-4,0h-2v-.5h2Zm-4,0h-2v-.5h2Zm-4,0h-2v-.5h2Zm-4,0h-2v-.5h2Zm-4,0H96v-.5h2Zm-4,0H92v-.5h2Zm-4,0H88v-.5h2Zm-4,0H84v-.5h2Zm-4,0H80v-.5h2Zm-4,0H76v-.5h2Zm-4,0H72v-.5h2Zm-4,0H68v-.5h2Zm-4,0H64v-.5h2Zm-4,0H60v-.5h2Zm-4,0H56v-.5h2Zm-4,0H52v-.5h2Zm-4,0H48v-.5h2Zm-4,0H44v-.5h2Zm-4,0H40v-.5h2Zm-4,0H36v-.5h2Zm-4,0H32v-.5h2Zm-4,0H28v-.5h2Zm-4,0H24v-.5h2Zm-4,0H20v-.5h2Zm-4,0H16v-.5h2Zm-4,0H12v-.5h2Zm-4,0H8v-.5h2Zm-4,0H4v-.5H6Zm-4,0H0v-.5H2Z" transform="translate(360 276)" fill="rgba(0,0,0,0.15)"/>
    <text id="_70" data-name="70" transform="translate(340 386)" fill="#0c345d" font-size="12" font-family="Poppins-Regular, Poppins"><tspan x="0" y="0">70</tspan></text>
    <text id="_80" data-name="80" transform="translate(340 351)" fill="#0c345d" font-size="12" font-family="Poppins-Regular, Poppins"><tspan x="0" y="0">80</tspan></text>
    <text id="_90" data-name="90" transform="translate(340 316)" fill="#0c345d" font-size="12" font-family="Poppins-Regular, Poppins"><tspan x="0" y="0">90</tspan></text>
    <text id="_100" data-name="100" transform="translate(336 281)" fill="#0c345d" font-size="12" font-family="Poppins-Regular, Poppins"><tspan x="0" y="0">100</tspan></text>
    <g id="Group_570" data-name="Group 570">
      <path id="Rectangle_223" data-name="Rectangle 223" d="M5,0H5a5,5,0,0,1,5,5V294a0,0,0,0,1,0,0H0a0,0,0,0,1,0,0V5A5,5,0,0,1,5,0Z" transform="translate(398 332)" fill="#efefef"/>
      <path id="Rectangle_225" data-name="Rectangle 225" d="M5,0H5a5,5,0,0,1,5,5V108a0,0,0,0,1,0,0H0a0,0,0,0,1,0,0V5A5,5,0,0,1,5,0Z" transform="translate(398 379)" fill="#5086be"/>
      <path id="Rectangle_224" data-name="Rectangle 224" d="M5,0H5a5,5,0,0,1,5,5V149a0,0,0,0,1,0,0H0a0,0,0,0,1,0,0V5A5,5,0,0,1,5,0Z" transform="translate(398 477)" fill="#0c345d"/>
    </g>
    <g id="Group_571" data-name="Group 571" transform="translate(54)">
      <path id="Rectangle_223-2" data-name="Rectangle 223" d="M5,0H5a5,5,0,0,1,5,5V220a0,0,0,0,1,0,0H0a0,0,0,0,1,0,0V5A5,5,0,0,1,5,0Z" transform="translate(398 406)" fill="#efefef"/>
      <path id="Rectangle_225-2" data-name="Rectangle 225" d="M5,0H5a5,5,0,0,1,5,5V108a0,0,0,0,1,0,0H0a0,0,0,0,1,0,0V5A5,5,0,0,1,5,0Z" transform="translate(398 479)" fill="#5086be"/>
      <path id="Rectangle_224-2" data-name="Rectangle 224" d="M5,0H5a5,5,0,0,1,5,5V99a0,0,0,0,1,0,0H0a0,0,0,0,1,0,0V5A5,5,0,0,1,5,0Z" transform="translate(398 527)" fill="#0c345d"/>
    </g>
    <g id="Group_572" data-name="Group 572" transform="translate(109)">
      <path id="Rectangle_223-3" data-name="Rectangle 223" d="M5,0H5a5,5,0,0,1,5,5V343a0,0,0,0,1,0,0H0a0,0,0,0,1,0,0V5A5,5,0,0,1,5,0Z" transform="translate(398 283)" fill="#efefef"/>
      <path id="Rectangle_225-3" data-name="Rectangle 225" d="M5,0H5a5,5,0,0,1,5,5V157a0,0,0,0,1,0,0H0a0,0,0,0,1,0,0V5A5,5,0,0,1,5,0Z" transform="translate(398 430)" fill="#5086be"/>
      <path id="Rectangle_224-3" data-name="Rectangle 224" d="M5,0H5a5,5,0,0,1,5,5V141a0,0,0,0,1,0,0H0a0,0,0,0,1,0,0V5A5,5,0,0,1,5,0Z" transform="translate(398 485)" fill="#0c345d"/>
    </g>
    <g id="Group_573" data-name="Group 573" transform="translate(162)">
      <path id="Rectangle_223-4" data-name="Rectangle 223" d="M5,0H5a5,5,0,0,1,5,5V294a0,0,0,0,1,0,0H0a0,0,0,0,1,0,0V5A5,5,0,0,1,5,0Z" transform="translate(398 332)" fill="#efefef"/>
      <path id="Rectangle_225-4" data-name="Rectangle 225" d="M5,0H5a5,5,0,0,1,5,5V108a0,0,0,0,1,0,0H0a0,0,0,0,1,0,0V5A5,5,0,0,1,5,0Z" transform="translate(398 379)" fill="#5086be"/>
      <path id="Rectangle_224-4" data-name="Rectangle 224" d="M5,0H5a5,5,0,0,1,5,5V149a0,0,0,0,1,0,0H0a0,0,0,0,1,0,0V5A5,5,0,0,1,5,0Z" transform="translate(398 477)" fill="#0c345d"/>
    </g>
    <g id="Group_574" data-name="Group 574" transform="translate(326)">
      <path id="Rectangle_223-5" data-name="Rectangle 223" d="M5,0H5a5,5,0,0,1,5,5V294a0,0,0,0,1,0,0H0a0,0,0,0,1,0,0V5A5,5,0,0,1,5,0Z" transform="translate(398 332)" fill="#efefef"/>
      <path id="Rectangle_225-5" data-name="Rectangle 225" d="M5,0H5a5,5,0,0,1,5,5V108a0,0,0,0,1,0,0H0a0,0,0,0,1,0,0V5A5,5,0,0,1,5,0Z" transform="translate(398 379)" fill="#5086be"/>
      <path id="Rectangle_224-5" data-name="Rectangle 224" d="M5,0H5a5,5,0,0,1,5,5V149a0,0,0,0,1,0,0H0a0,0,0,0,1,0,0V5A5,5,0,0,1,5,0Z" transform="translate(398 477)" fill="#0c345d"/>
    </g>
    <g id="Group_575" data-name="Group 575" transform="translate(218)">
      <path id="Rectangle_223-6" data-name="Rectangle 223" d="M5,0H5a5,5,0,0,1,5,5V220a0,0,0,0,1,0,0H0a0,0,0,0,1,0,0V5A5,5,0,0,1,5,0Z" transform="translate(398 406)" fill="#efefef"/>
      <path id="Rectangle_225-6" data-name="Rectangle 225" d="M5,0H5a5,5,0,0,1,5,5V108a0,0,0,0,1,0,0H0a0,0,0,0,1,0,0V5A5,5,0,0,1,5,0Z" transform="translate(398 479)" fill="#5086be"/>
      <path id="Rectangle_224-6" data-name="Rectangle 224" d="M5,0H5a5,5,0,0,1,5,5V99a0,0,0,0,1,0,0H0a0,0,0,0,1,0,0V5A5,5,0,0,1,5,0Z" transform="translate(398 527)" fill="#0c345d"/>
    </g>
    <g id="Group_576" data-name="Group 576" transform="translate(486)">
      <path id="Rectangle_223-7" data-name="Rectangle 223" d="M5,0H5a5,5,0,0,1,5,5V220a0,0,0,0,1,0,0H0a0,0,0,0,1,0,0V5A5,5,0,0,1,5,0Z" transform="translate(398 406)" fill="#efefef"/>
      <path id="Rectangle_225-7" data-name="Rectangle 225" d="M5,0H5a5,5,0,0,1,5,5V108a0,0,0,0,1,0,0H0a0,0,0,0,1,0,0V5A5,5,0,0,1,5,0Z" transform="translate(398 479)" fill="#5086be"/>
      <path id="Rectangle_224-7" data-name="Rectangle 224" d="M5,0H5a5,5,0,0,1,5,5V99a0,0,0,0,1,0,0H0a0,0,0,0,1,0,0V5A5,5,0,0,1,5,0Z" transform="translate(398 527)" fill="#0c345d"/>
    </g>
    <g id="Group_577" data-name="Group 577" transform="translate(274)">
      <path id="Rectangle_223-8" data-name="Rectangle 223" d="M5,0H5a5,5,0,0,1,5,5V343a0,0,0,0,1,0,0H0a0,0,0,0,1,0,0V5A5,5,0,0,1,5,0Z" transform="translate(398 283)" fill="#efefef"/>
      <path id="Rectangle_225-8" data-name="Rectangle 225" d="M5,0H5a5,5,0,0,1,5,5V157a0,0,0,0,1,0,0H0a0,0,0,0,1,0,0V5A5,5,0,0,1,5,0Z" transform="translate(398 430)" fill="#5086be"/>
      <path id="Rectangle_224-8" data-name="Rectangle 224" d="M5,0H5a5,5,0,0,1,5,5V141a0,0,0,0,1,0,0H0a0,0,0,0,1,0,0V5A5,5,0,0,1,5,0Z" transform="translate(398 485)" fill="#0c345d"/>
    </g>
    <g id="Group_578" data-name="Group 578" transform="translate(541)">
      <path id="Rectangle_223-9" data-name="Rectangle 223" d="M5,0H5a5,5,0,0,1,5,5V343a0,0,0,0,1,0,0H0a0,0,0,0,1,0,0V5A5,5,0,0,1,5,0Z" transform="translate(398 283)" fill="#efefef"/>
      <path id="Rectangle_225-9" data-name="Rectangle 225" d="M5,0H5a5,5,0,0,1,5,5V157a0,0,0,0,1,0,0H0a0,0,0,0,1,0,0V5A5,5,0,0,1,5,0Z" transform="translate(398 430)" fill="#5086be"/>
      <path id="Rectangle_224-9" data-name="Rectangle 224" d="M5,0H5a5,5,0,0,1,5,5V141a0,0,0,0,1,0,0H0a0,0,0,0,1,0,0V5A5,5,0,0,1,5,0Z" transform="translate(398 485)" fill="#0c345d"/>
    </g>
    <g id="Group_579" data-name="Group 579" transform="translate(378)">
      <path id="Rectangle_223-10" data-name="Rectangle 223" d="M5,0H5a5,5,0,0,1,5,5V220a0,0,0,0,1,0,0H0a0,0,0,0,1,0,0V5A5,5,0,0,1,5,0Z" transform="translate(398 406)" fill="#efefef"/>
      <path id="Rectangle_225-10" data-name="Rectangle 225" d="M5,0H5a5,5,0,0,1,5,5V108a0,0,0,0,1,0,0H0a0,0,0,0,1,0,0V5A5,5,0,0,1,5,0Z" transform="translate(398 479)" fill="#5086be"/>
      <path id="Rectangle_224-10" data-name="Rectangle 224" d="M5,0H5a5,5,0,0,1,5,5V99a0,0,0,0,1,0,0H0a0,0,0,0,1,0,0V5A5,5,0,0,1,5,0Z" transform="translate(398 527)" fill="#0c345d"/>
    </g>
    <g id="Group_580" data-name="Group 580" transform="translate(433)">
      <path id="Rectangle_223-11" data-name="Rectangle 223" d="M5,0H5a5,5,0,0,1,5,5V220a0,0,0,0,1,0,0H0a0,0,0,0,1,0,0V5A5,5,0,0,1,5,0Z" transform="translate(398 406)" fill="#efefef"/>
      <path id="Rectangle_225-11" data-name="Rectangle 225" d="M5,0H5a5,5,0,0,1,5,5V108a0,0,0,0,1,0,0H0a0,0,0,0,1,0,0V5A5,5,0,0,1,5,0Z" transform="translate(398 479)" fill="#5086be"/>
      <path id="Rectangle_224-11" data-name="Rectangle 224" d="M5,0H5a5,5,0,0,1,5,5V99a0,0,0,0,1,0,0H0a0,0,0,0,1,0,0V5A5,5,0,0,1,5,0Z" transform="translate(398 527)" fill="#0c345d"/>
    </g>
    <g id="Group_581" data-name="Group 581" transform="translate(596)">
      <path id="Rectangle_223-12" data-name="Rectangle 223" d="M5,0H5a5,5,0,0,1,5,5V294a0,0,0,0,1,0,0H0a0,0,0,0,1,0,0V5A5,5,0,0,1,5,0Z" transform="translate(398 332)" fill="#efefef"/>
      <path id="Rectangle_225-12" data-name="Rectangle 225" d="M5,0H5a5,5,0,0,1,5,5V108a0,0,0,0,1,0,0H0a0,0,0,0,1,0,0V5A5,5,0,0,1,5,0Z" transform="translate(398 379)" fill="#5086be"/>
      <path id="Rectangle_224-12" data-name="Rectangle 224" d="M5,0H5a5,5,0,0,1,5,5V149a0,0,0,0,1,0,0H0a0,0,0,0,1,0,0V5A5,5,0,0,1,5,0Z" transform="translate(398 477)" fill="#0c345d"/>
    </g>
  </g>
</svg>
