<svg xmlns="http://www.w3.org/2000/svg" width="17.374" height="15.5" viewBox="0 0 17.374 15.5">
  <path id="house-solid_2_" data-name="house-solid (2)" d="M16.869,7.485a.947.947,0,0,1-.937.94h-.937l.021,4.693a2.15,2.15,0,0,1-.015.237v.472A1.172,1.172,0,0,1,13.828,15h-.469c-.032,0-.064,0-.1,0s-.082,0-.123,0H11.484a1.172,1.172,0,0,1-1.172-1.172V11.25a.936.936,0,0,0-.937-.937H7.5a.936.936,0,0,0-.937.938v2.578A1.172,1.172,0,0,1,5.391,15H3.753c-.044,0-.088,0-.132-.006S3.551,15,3.516,15H3.047a1.172,1.172,0,0,1-1.172-1.172V10.547a.768.768,0,0,1,0-.082V8.426H.937A.926.926,0,0,1,0,7.485a.952.952,0,0,1,.293-.7L7.8.234A.845.845,0,0,1,8.449,0a.973.973,0,0,1,.615.205l7.482,6.577A.8.8,0,0,1,16.869,7.485Z" transform="translate(0.25 0.25)" fill="none" stroke="rgba(255,255,255,0.5)" stroke-width="0.5"/>
</svg>
