<svg xmlns="http://www.w3.org/2000/svg" width="15.5" height="13.625" viewBox="0 0 15.5 13.625">
  <path id="inbox-solid" d="M3.545,32a1.874,1.874,0,0,0-1.819,1.421L.056,40.1A1.836,1.836,0,0,0,0,40.552v2.7a1.877,1.877,0,0,0,1.875,1.875h11.25A1.877,1.877,0,0,0,15,43.25v-2.7a1.836,1.836,0,0,0-.056-.454l-1.67-6.677A1.874,1.874,0,0,0,11.455,32Zm0,1.875h7.91L12.861,39.5h-1.5a.934.934,0,0,0-.838.519l-.419.838a.939.939,0,0,1-.838.519H5.736a.934.934,0,0,1-.838-.519l-.419-.838a.939.939,0,0,0-.838-.519h-1.5Z" transform="translate(0.25 -31.75)" fill="none" stroke="rgba(255,255,255,0.6)" stroke-width="0.5"/>
</svg>
