<svg xmlns="http://www.w3.org/2000/svg" width="129.186" height="28.958" viewBox="0 0 129.186 28.958">
  <g id="Group_3473" data-name="Group 3473" transform="translate(-11751 4311)">
    <path id="Path_6209" data-name="Path 6209" d="M145.8,124.324a.679.679,0,0,0-.317-.514,1.217,1.217,0,0,0-.679-.183,1.3,1.3,0,0,0-.518.1.822.822,0,0,0-.343.264.628.628,0,0,0-.122.38.544.544,0,0,0,.085.306.762.762,0,0,0,.222.211,1.584,1.584,0,0,0,.283.136c.1.035.189.063.272.085l.452.122a3.99,3.99,0,0,1,.387.126,1.8,1.8,0,0,1,.408.22,1.122,1.122,0,0,1,.326.352,1.019,1.019,0,0,1,.128.529,1.174,1.174,0,0,1-.189.652,1.291,1.291,0,0,1-.548.463,2.012,2.012,0,0,1-.872.171,2.038,2.038,0,0,1-.829-.153,1.326,1.326,0,0,1-.548-.431,1.23,1.23,0,0,1-.224-.641h.563a.7.7,0,0,0,.17.417.919.919,0,0,0,.378.243,1.523,1.523,0,0,0,.5.079,1.459,1.459,0,0,0,.554-.1.951.951,0,0,0,.389-.283.669.669,0,0,0,.144-.426.523.523,0,0,0-.124-.361.909.909,0,0,0-.327-.226,3.366,3.366,0,0,0-.437-.153l-.548-.157a2.038,2.038,0,0,1-.826-.429.94.94,0,0,1-.306-.728,1.082,1.082,0,0,1,.2-.653,1.345,1.345,0,0,1,.548-.435,1.855,1.855,0,0,1,.772-.157,1.805,1.805,0,0,1,.766.153,1.327,1.327,0,0,1,.531.417,1.042,1.042,0,0,1,.209.6Zm10,1.113a2.718,2.718,0,0,1-.255,1.218,1.909,1.909,0,0,1-.7.792,1.985,1.985,0,0,1-2.027,0,1.911,1.911,0,0,1-.7-.792,3.039,3.039,0,0,1,0-2.436,1.908,1.908,0,0,1,.7-.791,1.982,1.982,0,0,1,2.027,0,1.906,1.906,0,0,1,.7.791,2.718,2.718,0,0,1,.257,1.217Zm-.522,0a2.219,2.219,0,0,0-.194-.976,1.368,1.368,0,0,0-1.983-.6,1.421,1.421,0,0,0-.52.6,2.586,2.586,0,0,0,0,1.953,1.368,1.368,0,0,0,1.983.6,1.4,1.4,0,0,0,.52-.6,2.219,2.219,0,0,0,.2-.977Zm6.206,2.227v-4.453h.539v3.974h2.07v.476Zm11.142-4.453h.539v2.949a1.555,1.555,0,0,1-.215.815,1.509,1.509,0,0,1-.6.561,2.143,2.143,0,0,1-1.826,0,1.521,1.521,0,0,1-.6-.561,1.568,1.568,0,0,1-.213-.815v-2.949h.539v2.905a1.159,1.159,0,0,0,.144.581,1.031,1.031,0,0,0,.408.4,1.5,1.5,0,0,0,1.276,0,1.011,1.011,0,0,0,.408-.4,1.16,1.16,0,0,0,.144-.581Zm6.149.476v-.476h3.34v.476h-1.4v3.98h-.539v-3.975Zm9.488-.476v4.455h-.539v-4.453Zm9.615,2.226a2.717,2.717,0,0,1-.255,1.218,1.909,1.909,0,0,1-.7.792,1.985,1.985,0,0,1-2.026,0,1.909,1.909,0,0,1-.7-.792,3.039,3.039,0,0,1,0-2.436,1.9,1.9,0,0,1,.7-.791,1.981,1.981,0,0,1,2.026,0,1.9,1.9,0,0,1,.7.791,2.717,2.717,0,0,1,.257,1.217Zm-.522,0a2.226,2.226,0,0,0-.194-.976,1.37,1.37,0,0,0-1.983-.6,1.42,1.42,0,0,0-.52.6,2.586,2.586,0,0,0,0,1.953,1.368,1.368,0,0,0,1.983.6,1.4,1.4,0,0,0,.52-.6,2.227,2.227,0,0,0,.195-.976Zm9.736-2.226v4.455h-.522l-2.426-3.5H204.1v3.5h-.539v-4.453h.522l2.436,3.505h.043v-3.505Zm8.289,1.114a.684.684,0,0,0-.318-.514,1.215,1.215,0,0,0-.679-.183,1.3,1.3,0,0,0-.518.1.825.825,0,0,0-.343.264.631.631,0,0,0-.122.38.547.547,0,0,0,.085.306.762.762,0,0,0,.222.211,1.585,1.585,0,0,0,.283.136c.1.035.19.063.272.085l.452.122a4.036,4.036,0,0,1,.387.126,1.805,1.805,0,0,1,.408.22,1.118,1.118,0,0,1,.326.352,1.015,1.015,0,0,1,.128.529,1.173,1.173,0,0,1-.19.652,1.287,1.287,0,0,1-.548.463,2.011,2.011,0,0,1-.872.171,2.038,2.038,0,0,1-.828-.153,1.318,1.318,0,0,1-.548-.431,1.223,1.223,0,0,1-.224-.641h.556a.7.7,0,0,0,.169.417.918.918,0,0,0,.378.243,1.521,1.521,0,0,0,.5.079,1.455,1.455,0,0,0,.554-.1.955.955,0,0,0,.389-.283.671.671,0,0,0,.143-.426.523.523,0,0,0-.124-.361.912.912,0,0,0-.326-.226,3.378,3.378,0,0,0-.438-.153l-.548-.157a2.038,2.038,0,0,1-.826-.429.94.94,0,0,1-.306-.728,1.082,1.082,0,0,1,.2-.653,1.345,1.345,0,0,1,.548-.435,1.853,1.853,0,0,1,.772-.157,1.805,1.805,0,0,1,.766.153,1.326,1.326,0,0,1,.531.417,1.038,1.038,0,0,1,.209.6Z" transform="translate(11637.44 -4409.783)" fill="#262525"/>
    <path id="Path_6210" data-name="Path 6210" d="M172.162,87.9V73.029l-.292-2.341h4.212l9.95,10.418,1.141,1.582h.322v-12h3.863V87.9h-3.717L177.461,77.3l-1.141-1.374h-.292V87.894Z" transform="translate(11621.947 -4381.336)"/>
    <path id="Path_6211" data-name="Path 6211" d="M222.314,87.864a7.381,7.381,0,0,1-3.248-.585,3.273,3.273,0,0,1-1.639-1.756,7.833,7.833,0,0,1-.468-2.9V76.1a5.8,5.8,0,0,1,1.258-4.127,5.393,5.393,0,0,1,4.1-1.346h8.809a15.151,15.151,0,0,1,3.073.234q1.083.2,1.083.439l-.585,2.429q-.5-.088-2.955-.175-2.43-.117-7.083-.117h-1.495q-2.341,0-2.342,2.078v7.462a2.242,2.242,0,0,0,.5,1.551,2.571,2.571,0,0,0,1.844.527h1.2q4.858,0,7.521-.088,2.692-.117,3.336-.234l1.2,1.932q0,.147-.5.44a5.562,5.562,0,0,1-1.756.527,22.224,22.224,0,0,1-3.717.234Z" transform="translate(11600.158 -4381.304)"/>
    <path id="Path_6212" data-name="Path 6212" d="M259.108,87.9V70.688h18.2V73.5H262.975v4.038h10.938v2.9H262.971v4.653h14.457l1.171,2.487q0,.117-.79.234-.79.088-2.721.088Z" transform="translate(11579.785 -4381.336)"/>
    <path id="Path_6213" data-name="Path 6213" d="M301.589,87.886V73.019l-.292-2.341h13.579a8.878,8.878,0,0,1,3.629.585,3.346,3.346,0,0,1,1.786,1.756,7.2,7.2,0,0,1,.5,2.868v6.761a7.508,7.508,0,0,1-.5,2.926,3.242,3.242,0,0,1-1.756,1.727,8.968,8.968,0,0,1-3.658.585Zm3.863-2.809h9.189q2.254,0,2.282-2.078V75.536a2.138,2.138,0,0,0-.5-1.434,2.194,2.194,0,0,0-1.786-.611h-9.187Z" transform="translate(11559.395 -4381.327)"/>
    <path id="Path_6214" data-name="Path 6214" d="M97.164,87.924,89,70.746h4.1L99.652,84.7h-.264l6.586-13.959h4.4l-.891,1.755-7.638,15.422Z" transform="translate(11662 -4381.364)" fill="#3f1f71"/>
    <path id="Path_6215" data-name="Path 6215" d="M124.271,87.559,132.769,70h5.715l8.471,17.559h-4.466l-1.711-3.792L135.512,73l-5.119,10.766-1.885,3.792Z" transform="translate(11644.727 -4381)" fill="#2c3ea1"/>
    <path id="Path_6216" data-name="Path 6216" d="M141.477,98.8l1.918-4.386.642-1.463.649,1.463L146.6,98.8Z" transform="translate(11636.598 -4392.079)" fill="#443e3e"/>
  </g>
</svg>
