<svg xmlns="http://www.w3.org/2000/svg" width="172.146" height="38.588" viewBox="0 0 172.146 38.588">
  <g id="Group_3473" data-name="Group 3473" transform="translate(-11751 4311)">
    <path id="Path_6209" data-name="Path 6209" d="M146.709,124.733a.915.915,0,0,0-.427-.692,1.639,1.639,0,0,0-.915-.246,1.75,1.75,0,0,0-.7.128,1.107,1.107,0,0,0-.462.355.845.845,0,0,0-.164.512.732.732,0,0,0,.114.413,1.026,1.026,0,0,0,.3.284,2.134,2.134,0,0,0,.381.183c.133.048.254.085.366.114l.609.164a5.376,5.376,0,0,1,.521.17,2.425,2.425,0,0,1,.549.3,1.511,1.511,0,0,1,.439.474,1.372,1.372,0,0,1,.173.712,1.581,1.581,0,0,1-.254.878,1.739,1.739,0,0,1-.738.624,2.71,2.71,0,0,1-1.175.231,2.745,2.745,0,0,1-1.116-.206,1.786,1.786,0,0,1-.738-.58,1.657,1.657,0,0,1-.3-.864h.758a.94.94,0,0,0,.229.562,1.237,1.237,0,0,0,.51.328,2.051,2.051,0,0,0,.668.106,1.966,1.966,0,0,0,.747-.137,1.281,1.281,0,0,0,.523-.381.9.9,0,0,0,.194-.574.7.7,0,0,0-.167-.487,1.224,1.224,0,0,0-.44-.3,4.532,4.532,0,0,0-.588-.206l-.738-.211a2.744,2.744,0,0,1-1.113-.577,1.265,1.265,0,0,1-.413-.981,1.457,1.457,0,0,1,.275-.879,1.812,1.812,0,0,1,.738-.586,2.5,2.5,0,0,1,1.039-.211,2.431,2.431,0,0,1,1.031.206,1.787,1.787,0,0,1,.715.562,1.4,1.4,0,0,1,.281.812Zm13.469,1.5a3.661,3.661,0,0,1-.344,1.641,2.571,2.571,0,0,1-.94,1.066,2.674,2.674,0,0,1-2.729,0,2.574,2.574,0,0,1-.94-1.066,4.093,4.093,0,0,1,0-3.28,2.57,2.57,0,0,1,.94-1.066,2.67,2.67,0,0,1,2.729,0,2.567,2.567,0,0,1,.94,1.066,3.66,3.66,0,0,1,.346,1.64Zm-.7,0a2.988,2.988,0,0,0-.261-1.315,1.843,1.843,0,0,0-2.671-.811,1.914,1.914,0,0,0-.7.811,3.483,3.483,0,0,0,0,2.63,1.843,1.843,0,0,0,2.671.811,1.886,1.886,0,0,0,.7-.811,2.989,2.989,0,0,0,.263-1.316Zm8.357,3v-6h.727v5.353h2.788v.64Zm15.006-6h.727V127.2a2.093,2.093,0,0,1-.29,1.1,2.032,2.032,0,0,1-.812.756,2.886,2.886,0,0,1-2.46,0,2.049,2.049,0,0,1-.814-.756,2.112,2.112,0,0,1-.287-1.1v-3.971h.727v3.912a1.562,1.562,0,0,0,.194.782,1.388,1.388,0,0,0,.549.536,2.013,2.013,0,0,0,1.718,0,1.362,1.362,0,0,0,.549-.536,1.562,1.562,0,0,0,.194-.782Zm8.281.64v-.64h4.5v.64h-1.886v5.36h-.727v-5.354Zm12.778-.64v6h-.727v-6Zm12.949,3a3.659,3.659,0,0,1-.344,1.641,2.571,2.571,0,0,1-.94,1.066,2.673,2.673,0,0,1-2.728,0,2.571,2.571,0,0,1-.94-1.066,4.092,4.092,0,0,1,0-3.28,2.562,2.562,0,0,1,.94-1.066,2.668,2.668,0,0,1,2.728,0,2.562,2.562,0,0,1,.94,1.066,3.66,3.66,0,0,1,.346,1.64Zm-.7,0a3,3,0,0,0-.261-1.315,1.845,1.845,0,0,0-2.671-.811,1.913,1.913,0,0,0-.7.811,3.483,3.483,0,0,0,0,2.63,1.843,1.843,0,0,0,2.671.811,1.887,1.887,0,0,0,.7-.811,3,3,0,0,0,.263-1.315Zm13.112-3v6h-.7l-3.267-4.709h-.059v4.709H224.5v-6h.7l3.28,4.72h.059v-4.72Zm11.163,1.5a.922.922,0,0,0-.428-.692,1.636,1.636,0,0,0-.915-.246,1.749,1.749,0,0,0-.7.128,1.111,1.111,0,0,0-.462.355.85.85,0,0,0-.164.512.736.736,0,0,0,.114.413,1.027,1.027,0,0,0,.3.284,2.134,2.134,0,0,0,.381.183c.133.048.255.085.366.114l.608.164a5.439,5.439,0,0,1,.522.17,2.431,2.431,0,0,1,.549.3,1.506,1.506,0,0,1,.439.474,1.366,1.366,0,0,1,.173.712,1.58,1.58,0,0,1-.255.878,1.733,1.733,0,0,1-.738.624,2.708,2.708,0,0,1-1.175.231,2.745,2.745,0,0,1-1.115-.206,1.775,1.775,0,0,1-.738-.58,1.647,1.647,0,0,1-.3-.864h.749a.936.936,0,0,0,.228.562,1.237,1.237,0,0,0,.51.328,2.048,2.048,0,0,0,.667.106,1.96,1.96,0,0,0,.747-.137,1.286,1.286,0,0,0,.524-.381.9.9,0,0,0,.193-.574.7.7,0,0,0-.167-.487,1.228,1.228,0,0,0-.439-.3,4.548,4.548,0,0,0-.589-.206l-.738-.211a2.745,2.745,0,0,1-1.113-.577,1.265,1.265,0,0,1-.413-.981,1.457,1.457,0,0,1,.275-.879,1.811,1.811,0,0,1,.738-.586,2.5,2.5,0,0,1,1.039-.211,2.431,2.431,0,0,1,1.031.206,1.787,1.787,0,0,1,.715.562,1.4,1.4,0,0,1,.281.812Z" transform="translate(11646.745 -4401.747)" fill="#262525"/>
    <path id="Path_6210" data-name="Path 6210" d="M172.263,93.863V73.841l-.393-3.153h5.673l13.4,14.03,1.537,2.13h.434V70.688h5.2V93.863h-5.006L179.4,79.6l-1.537-1.851h-.393V93.86Z" transform="translate(11636.078 -4381.214)"/>
    <path id="Path_6211" data-name="Path 6211" d="M224.172,93.842a9.94,9.94,0,0,1-4.375-.788,4.408,4.408,0,0,1-2.207-2.364,10.548,10.548,0,0,1-.63-3.9V78q0-3.783,1.695-5.558,1.695-1.813,5.517-1.813h11.864a20.4,20.4,0,0,1,4.138.316q1.458.274,1.458.591l-.788,3.271q-.67-.118-3.98-.236-3.272-.157-9.539-.157h-2.013q-3.153,0-3.154,2.8V87.26a3.019,3.019,0,0,0,.67,2.089,3.463,3.463,0,0,0,2.483.709h1.616q6.543,0,10.129-.118,3.626-.157,4.493-.316l1.617,2.6q0,.2-.67.592a7.49,7.49,0,0,1-2.364.709,29.93,29.93,0,0,1-5.006.316Z" transform="translate(11621.978 -4381.194)"/>
    <path id="Path_6212" data-name="Path 6212" d="M259.108,93.863V70.688h24.514v3.783H264.316V79.91h14.731v3.9H264.311v6.267h19.47l1.576,3.35q0,.157-1.064.316-1.064.118-3.664.118Z" transform="translate(11608.791 -4381.214)"/>
    <path id="Path_6213" data-name="Path 6213" d="M301.69,93.856V73.835l-.393-3.153h18.288a11.957,11.957,0,0,1,4.887.788,4.506,4.506,0,0,1,2.405,2.364,9.7,9.7,0,0,1,.67,3.862v9.1a10.112,10.112,0,0,1-.67,3.941,4.367,4.367,0,0,1-2.364,2.326,12.078,12.078,0,0,1-4.926.788Zm5.2-3.783h12.375q3.035,0,3.073-2.8V77.225a2.879,2.879,0,0,0-.67-1.931,2.955,2.955,0,0,0-2.405-.823H306.894Z" transform="translate(11595.595 -4381.208)"/>
    <path id="Path_6214" data-name="Path 6214" d="M100,93.88,89,70.746h5.517l8.829,18.8h-.355l8.87-18.8h5.929l-1.2,2.363L106.3,93.878Z" transform="translate(11662 -4381.232)" fill="#3f1f71"/>
    <path id="Path_6215" data-name="Path 6215" d="M124.271,93.648,135.716,70h7.7L154.82,93.648h-6.015l-2.3-5.107-7.09-14.5-6.894,14.5-2.538,5.107Z" transform="translate(11650.968 -4381)" fill="#2c3ea1"/>
    <path id="Path_6216" data-name="Path 6216" d="M141.477,100.824l2.583-5.907.865-1.971.874,1.971,2.575,5.91Z" transform="translate(11645.585 -4388.176)" fill="#443e3e"/>
  </g>
</svg>
