<svg xmlns="http://www.w3.org/2000/svg" width="7.714" height="12" viewBox="0 0 7.714 12">
  <path id="question-solid" d="M17.714,35.429a1.716,1.716,0,0,1,1.714-1.714h.857A1.716,1.716,0,0,1,22,35.429v.1a1.711,1.711,0,0,1-.788,1.441l-1.13.726A2.357,2.357,0,0,0,19,39.674v.04a.857.857,0,0,0,1.714,0v-.038a.646.646,0,0,1,.295-.541l1.13-.726a3.433,3.433,0,0,0,1.575-2.885v-.1A3.428,3.428,0,0,0,20.286,32h-.857A3.428,3.428,0,0,0,16,35.429a.857.857,0,1,0,1.714,0ZM19.857,44a1.071,1.071,0,1,0-1.071-1.071A1.071,1.071,0,0,0,19.857,44Z" transform="translate(-16 -32)"/>
</svg>
