<svg xmlns="http://www.w3.org/2000/svg" width="13.124" height="15" viewBox="0 0 13.124 15">
  <path id="bell-regular" d="M6.584,0a.936.936,0,0,0-.937.938v.524a4.454,4.454,0,0,0-3.75,4.4v.979A5.865,5.865,0,0,1,.614,10.5l-.437.548a.7.7,0,0,0,.548,1.143H12.444a.7.7,0,0,0,.548-1.143l-.437-.545a5.879,5.879,0,0,1-1.283-3.662V5.859a4.454,4.454,0,0,0-3.75-4.4V.938A.936.936,0,0,0,6.584,0Zm0,2.813h.234A3.048,3.048,0,0,1,9.865,5.859v.979a7.276,7.276,0,0,0,1.163,3.943H2.14A7.276,7.276,0,0,0,3.3,6.838V5.859A3.048,3.048,0,0,1,6.35,2.813ZM8.459,13.125H4.709a1.875,1.875,0,1,0,3.75,0Z" transform="translate(-0.022)" fill="#0b325a"/>
</svg>
