<svg xmlns="http://www.w3.org/2000/svg" width="15.5" height="12.5" viewBox="0 0 15.5 12.5">
  <path id="city-solid" d="M11.25,1.125A1.125,1.125,0,0,0,10.125,0H7.875A1.125,1.125,0,0,0,6.75,1.125V2.25H5.25V.563a.563.563,0,0,0-1.125,0V2.25h-1.5V.563A.563.563,0,0,0,1.5.563V2.25H1.125A1.125,1.125,0,0,0,0,3.375v7.5A1.125,1.125,0,0,0,1.125,12h12.75A1.125,1.125,0,0,0,15,10.875V5.625A1.125,1.125,0,0,0,13.875,4.5H11.25Zm2.25,7.5v.75a.376.376,0,0,1-.375.375h-.75A.376.376,0,0,1,12,9.375v-.75a.376.376,0,0,1,.375-.375h.75A.376.376,0,0,1,13.5,8.625ZM5.625,9.75h-.75A.376.376,0,0,1,4.5,9.375v-.75a.376.376,0,0,1,.375-.375h.75A.376.376,0,0,1,6,8.625v.75A.376.376,0,0,1,5.625,9.75ZM3,9.375a.376.376,0,0,1-.375.375h-.75A.376.376,0,0,1,1.5,9.375v-.75a.376.376,0,0,1,.375-.375h.75A.376.376,0,0,1,3,8.625ZM13.125,6a.376.376,0,0,1,.375.375v.75a.376.376,0,0,1-.375.375h-.75A.376.376,0,0,1,12,7.125v-.75A.376.376,0,0,1,12.375,6ZM6,4.125v.75a.376.376,0,0,1-.375.375h-.75A.376.376,0,0,1,4.5,4.875v-.75a.376.376,0,0,1,.375-.375h.75A.376.376,0,0,1,6,4.125ZM2.625,3.75A.376.376,0,0,1,3,4.125v.75a.376.376,0,0,1-.375.375h-.75A.376.376,0,0,1,1.5,4.875v-.75a.376.376,0,0,1,.375-.375ZM6,7.125a.376.376,0,0,1-.375.375h-.75A.376.376,0,0,1,4.5,7.125v-.75A.376.376,0,0,1,4.875,6h.75A.376.376,0,0,1,6,6.375ZM2.625,7.5h-.75A.376.376,0,0,1,1.5,7.125v-.75A.376.376,0,0,1,1.875,6h.75A.376.376,0,0,1,3,6.375v.75A.376.376,0,0,1,2.625,7.5ZM9.75,6.375v.75a.376.376,0,0,1-.375.375h-.75a.376.376,0,0,1-.375-.375v-.75A.376.376,0,0,1,8.625,6h.75A.376.376,0,0,1,9.75,6.375ZM9.375,1.5a.376.376,0,0,1,.375.375v.75A.376.376,0,0,1,9.375,3h-.75a.376.376,0,0,1-.375-.375v-.75A.376.376,0,0,1,8.625,1.5ZM9.75,4.125v.75a.376.376,0,0,1-.375.375h-.75a.376.376,0,0,1-.375-.375v-.75a.376.376,0,0,1,.375-.375h.75A.376.376,0,0,1,9.75,4.125Z" transform="translate(0.25 0.25)" fill="none" stroke="rgba(255,255,255,0.6)" stroke-width="0.5"/>
</svg>
