<svg xmlns="http://www.w3.org/2000/svg" width="15.5" height="12.5" viewBox="0 0 15.5 12.5">
  <path id="users-solid_1_" data-name="users-solid (1)" d="M3.375,0A1.875,1.875,0,1,1,1.5,1.875,1.875,1.875,0,0,1,3.375,0ZM12,0a1.875,1.875,0,1,1-1.875,1.875A1.875,1.875,0,0,1,12,0ZM0,7A2.5,2.5,0,0,1,2.5,4.5h1a2.514,2.514,0,0,1,1.045.227A2.95,2.95,0,0,0,4.5,5.25,3,3,0,0,0,5.517,7.5H.5A.5.5,0,0,1,0,7Zm9.5.5H9.483A2.993,2.993,0,0,0,10.5,5.25a3.21,3.21,0,0,0-.045-.523A2.478,2.478,0,0,1,11.5,4.5h1A2.5,2.5,0,0,1,15,7a.5.5,0,0,1-.5.5ZM5.25,5.25A2.25,2.25,0,1,1,7.5,7.5,2.25,2.25,0,0,1,5.25,5.25ZM3,11.374A3.125,3.125,0,0,1,6.124,8.25H8.876A3.125,3.125,0,0,1,12,11.374a.626.626,0,0,1-.626.626H3.626A.626.626,0,0,1,3,11.374Z" transform="translate(0.25 0.25)" fill="none" stroke="rgba(255,255,255,0.6)" stroke-width="0.5"/>
</svg>
