<svg xmlns="http://www.w3.org/2000/svg" width="15.997" height="14" viewBox="0 0 15.997 14">
  <path id="thumbs-up-regular" d="M10.117,32.105a2.25,2.25,0,0,0-2.781,1.543l-.178.625a2.743,2.743,0,0,1-.609,1.094l-1.6,1.762a.75.75,0,1,0,1.109,1.009l1.6-1.762a4.224,4.224,0,0,0,.94-1.69l.178-.625a.751.751,0,0,1,1.443.412l-.178.625a5.732,5.732,0,0,1-.831,1.734.751.751,0,0,0,.612,1.184H14a.5.5,0,0,1,.175.969.751.751,0,0,0-.3,1.2.494.494,0,0,1,.125.331.5.5,0,0,1-.406.491.749.749,0,0,0-.45,1.2.5.5,0,0,1-.212.775.75.75,0,0,0-.45.9.466.466,0,0,1,.019.134.5.5,0,0,1-.5.5H8.951a2,2,0,0,1-1.109-.334L5.915,42.9a.75.75,0,0,0-.831,1.25l1.928,1.284a3.489,3.489,0,0,0,1.94.587H12a2,2,0,0,0,2-1.937,2,2,0,0,0,.75-1.562,2.157,2.157,0,0,0-.041-.406,2,2,0,0,0,.7-2.178A2,2,0,0,0,14,36.517H11.114a7.178,7.178,0,0,0,.369-1.006l.178-.625a2.25,2.25,0,0,0-1.543-2.781ZM1,37.017a1,1,0,0,0-1,1v7a1,1,0,0,0,1,1H3a1,1,0,0,0,1-1v-7a1,1,0,0,0-1-1Z" transform="translate(0 -32.018)" fill="#7e7e7e"/>
</svg>
